<svg viewBox="0 0 60 60" fill="none" xmlns="http://www.w3.org/2000/svg">
<circle cx="30" cy="30" r="29.5" fill="#F7F7F8" stroke="#C7172C"/>
<g clip-path="url(#clip0_1895_14574)">
<path opacity="0.979" fill-rule="evenodd" clip-rule="evenodd" d="M34.1837 12.5274C39.6098 12.2043 43.9106 14.2199 47.086 18.5742C47.5079 19.418 47.5079 20.2617 47.086 21.1055C43.9123 25.4706 39.6115 27.4745 34.1837 27.1172C31.2602 26.7974 28.6938 25.6841 26.4844 23.7774C25.8985 24.4969 25.1368 24.8837 24.1993 24.9375C25.0277 26.286 25.4496 27.7508 25.4649 29.3321C24.9024 29.4961 24.3399 29.6602 23.7774 29.8242C23.7891 30.3638 23.7774 30.9029 23.7423 31.4414C23.4337 32.5744 22.6954 33.2072 21.5274 33.3399C21.5157 34.3245 21.5274 35.3089 21.5626 36.293C23.4581 38.0197 24.7472 40.1291 25.4298 42.6211C28.418 39.6328 31.4063 36.6446 34.3946 33.6563C34.4415 33.6094 34.4883 33.6094 34.5352 33.6563C35.4259 34.5469 36.3165 35.4375 37.2071 36.3281C37.254 36.375 37.3008 36.375 37.3477 36.3281C39.2696 34.4063 41.1915 32.4844 43.1134 30.5625C42.2934 30.5274 41.473 30.5156 40.6524 30.5274C40.6524 30.1524 40.6524 29.7773 40.6524 29.4024C42.4339 29.3906 44.2151 29.4024 45.9962 29.4375C43.1134 32.3203 40.2305 35.2031 37.3477 38.086C37.3008 38.1329 37.254 38.1329 37.2071 38.086C36.3165 37.1953 35.4259 36.3047 34.5352 35.4141C34.4883 35.3672 34.4415 35.3672 34.3946 35.4141C31.5235 38.2852 28.6524 41.1563 25.7813 44.0274C25.8143 44.7717 25.8964 45.51 26.0274 46.2422C26.777 46.2774 27.527 46.2891 28.2774 46.2774C28.2774 44.7774 28.2774 43.2773 28.2774 41.7774C29.4024 41.7774 30.5274 41.7774 31.6524 41.7774C31.6524 43.2773 31.6524 44.7774 31.6524 46.2774C32.0274 46.2774 32.4024 46.2774 32.7774 46.2774C32.7774 43.6524 32.7774 41.0273 32.7774 38.4024C33.9024 38.4024 35.0274 38.4024 36.1524 38.4024C36.1524 41.0273 36.1524 43.6524 36.1524 46.2774C36.5274 46.2774 36.9024 46.2774 37.2774 46.2774C37.2774 43.6524 37.2774 41.0273 37.2774 38.4024C38.4024 38.4024 39.5274 38.4024 40.6524 38.4024C40.6524 41.0273 40.6524 43.6524 40.6524 46.2774C41.0274 46.2774 41.4024 46.2774 41.7774 46.2774C41.7774 42.1523 41.7774 38.0274 41.7774 33.9024C42.9024 33.9024 44.0274 33.9024 45.1524 33.9024C45.1524 38.4024 45.1524 42.9024 45.1524 47.4024C34.2774 47.4024 23.4024 47.4024 12.5274 47.4024C12.5157 45.1522 12.5274 42.9022 12.5626 40.6524C12.9837 37.7607 14.4486 35.581 16.9571 34.1133C17.0509 33.7852 17.0509 33.4571 16.9571 33.1289C13.7134 31.485 12.2485 28.8365 12.5626 25.1836C13.254 21.5859 15.3985 19.4414 18.9962 18.75C20.6842 18.7383 22.3717 18.7031 24.0587 18.6446C26.5337 15.1329 29.9087 13.0938 34.1837 12.5274Z" fill="#010100"/>
<path fill-rule="evenodd" clip-rule="evenodd" d="M34.7461 13.6522C37.9374 13.4887 40.164 14.8598 41.4258 17.7655C42.192 20.3727 41.6061 22.6227 39.668 24.5155C37.6577 26.1174 35.4546 26.4455 33.0586 25.4999C30.1582 23.9527 28.998 21.5503 29.5781 18.2929C30.3854 15.7156 32.108 14.1687 34.7461 13.6522Z" fill="#67D2EF"/>
<path fill-rule="evenodd" clip-rule="evenodd" d="M34.8166 14.7775C37.9014 14.6644 39.835 16.0941 40.6174 19.0665C40.8027 21.7797 39.6425 23.6429 37.1369 24.6564C34.6121 25.2916 32.6316 24.5299 31.1955 22.3712C30.0001 19.9347 30.3868 17.7902 32.3557 15.9376C33.0913 15.3587 33.9116 14.972 34.8166 14.7775Z" fill="#010304"/>
<path fill-rule="evenodd" clip-rule="evenodd" d="M30.1055 14.8478C30.1574 14.8386 30.2043 14.8503 30.2461 14.8829C27.9765 17.5528 27.6601 20.4474 29.2969 23.5665C29.6021 24.0165 29.8951 24.4384 30.1758 24.8321C29.0417 24.2596 27.9988 23.5565 27.0469 22.7228C27.3847 21.0195 26.787 19.7656 25.2539 18.961C26.5645 17.216 28.1816 15.8449 30.1055 14.8478Z" fill="#C9CDD5"/>
<path fill-rule="evenodd" clip-rule="evenodd" d="M40.9336 14.918C40.9378 14.8798 40.9612 14.8563 41.0039 14.8477C43.0594 15.8817 44.7587 17.3348 46.1016 19.207C46.3504 19.7247 46.3035 20.2169 45.9609 20.6836C44.661 22.4409 43.0321 23.8003 41.0742 24.7617C41.0508 24.75 41.0273 24.7383 41.0039 24.7266C42.5397 22.9306 43.1374 20.8564 42.7969 18.5039C42.5062 17.1253 41.8851 15.93 40.9336 14.918Z" fill="#C9CED6"/>
<path fill-rule="evenodd" clip-rule="evenodd" d="M34.957 15.9022C37.3756 15.7798 38.8874 16.8814 39.4922 19.2069C39.6329 21.6899 38.4963 23.2016 36.082 23.7421C34.1774 23.8741 32.8063 23.089 31.9687 21.3866C31.2712 19.3779 31.7752 17.749 33.4805 16.4999C33.9506 16.2227 34.4428 16.0234 34.957 15.9022Z" fill="#3AACD6"/>
<path fill-rule="evenodd" clip-rule="evenodd" d="M35.0274 17.0273C37.2119 16.9739 38.3252 18.0286 38.3672 20.1914C37.9551 21.9513 36.8418 22.7599 35.0274 22.6172C33.3922 22.1057 32.6539 20.9925 32.8125 19.2773C33.1418 18.1161 33.8801 17.3661 35.0274 17.0273Z" fill="#010304"/>
<path fill-rule="evenodd" clip-rule="evenodd" d="M35.1679 18.1524C36.1964 18.0278 36.8878 18.4497 37.2421 19.418C37.366 20.4241 36.9558 21.1155 36.0117 21.4923C35.0056 21.6161 34.3142 21.206 33.9374 20.2618C33.7853 19.5229 34.0079 18.9252 34.6054 18.4688C34.7882 18.3426 34.9757 18.2371 35.1679 18.1524Z" fill="#4EBEE6"/>
<path fill-rule="evenodd" clip-rule="evenodd" d="M22.0898 24.3399C21.7616 24.3399 21.4336 24.3399 21.1054 24.3399C21.0389 23.9677 20.992 23.5927 20.9648 23.2149C20.5898 23.2149 20.2148 23.2149 19.8398 23.2149C19.8735 23.5891 19.8969 23.964 19.9101 24.3399C19.6992 24.3399 19.4882 24.3399 19.2773 24.3399C19.2773 24.1523 19.2773 23.9649 19.2773 23.7774C18.1337 23.8513 17.3954 24.4372 17.0624 25.5352C17.0273 25.9329 17.0156 26.3314 17.0273 26.7305C16.3101 26.9914 15.9351 27.5071 15.9023 28.2774C15.9049 28.625 15.9869 28.9531 16.1484 29.2617C16.4038 29.5876 16.685 29.8922 16.9921 30.1758C17.039 30.7383 17.039 31.3008 16.9921 31.8633C14.2204 30.1152 13.1892 27.6308 13.8984 24.4102C14.783 21.8614 16.5525 20.3497 19.207 19.875C20.9648 19.8281 22.7226 19.8281 24.4804 19.875C25.6135 20.2541 26.1174 21.0393 25.9921 22.2305C25.7694 23.0157 25.2656 23.5195 24.4804 23.7422C23.6839 23.7774 22.887 23.7891 22.0898 23.7774C22.0898 23.9649 22.0898 24.1523 22.0898 24.3399Z" fill="#B17845"/>
<path fill-rule="evenodd" clip-rule="evenodd" d="M21.1055 24.3398C21.2557 24.8279 21.5135 25.2498 21.8789 25.6055C21.6446 25.8867 21.3867 26.1446 21.1055 26.3789C20.5073 25.8153 20.1089 25.1356 19.9102 24.3398C19.897 23.964 19.8736 23.589 19.8398 23.2148C20.2148 23.2148 20.5899 23.2148 20.9648 23.2148C20.9921 23.5927 21.039 23.9677 21.1055 24.3398Z" fill="#040302"/>
<path fill-rule="evenodd" clip-rule="evenodd" d="M19.2775 24.3398C19.4885 24.3398 19.6994 24.3398 19.9104 24.3398C20.1091 25.1356 20.5075 25.8153 21.1057 26.3789C21.3869 26.1446 21.6447 25.8867 21.8791 25.6055C21.5137 25.2498 21.2559 24.8279 21.1057 24.3398C21.4338 24.3398 21.7619 24.3398 22.09 24.3398C22.09 24.5274 22.09 24.7148 22.09 24.9023C22.601 24.886 22.9877 25.097 23.2502 25.5352C23.5273 26.1128 23.7851 26.6988 24.0236 27.293C24.172 27.6791 24.254 28.0775 24.2697 28.4883C23.7464 28.6236 23.2307 28.7877 22.7229 28.9805C22.6644 29.7294 22.6292 30.4794 22.6174 31.2305C22.4416 31.6875 22.1252 32.0039 21.6682 32.1797C20.8717 32.2148 20.0747 32.2266 19.2775 32.2148C19.2775 32.5898 19.2775 32.9649 19.2775 33.3398C19.6525 33.3398 20.0276 33.3398 20.4025 33.3398C20.4142 34.0199 20.4025 34.6996 20.3674 35.3789C19.6869 34.886 18.9603 34.4641 18.1877 34.1133C18.1643 32.6367 18.1408 31.1602 18.1174 29.6836C17.7893 29.3554 17.4611 29.0274 17.133 28.6992C16.971 28.3801 17.0062 28.0871 17.2385 27.8203C17.5338 27.7242 17.8384 27.689 18.1525 27.7148C18.1408 27.0348 18.1526 26.3551 18.1877 25.6758C18.3878 25.182 18.7511 24.9241 19.2775 24.9023C19.2775 24.7148 19.2775 24.5274 19.2775 24.3398Z" fill="#EECEB3"/>
<path fill-rule="evenodd" clip-rule="evenodd" d="M42.9023 35.0273C43.2773 35.0273 43.6524 35.0273 44.0273 35.0273C44.0273 38.7773 44.0273 42.5274 44.0273 46.2773C43.6524 46.2773 43.2773 46.2773 42.9023 46.2773C42.9023 42.5274 42.9023 38.7773 42.9023 35.0273Z" fill="#FE826D"/>
<path fill-rule="evenodd" clip-rule="evenodd" d="M17.168 35.3086C17.4804 35.945 17.8086 36.5895 18.1523 37.2422C17.2238 37.2275 16.6496 36.7705 16.4297 35.8711C16.6869 35.6907 16.933 35.5032 17.168 35.3086Z" fill="#F5BF27"/>
<path fill-rule="evenodd" clip-rule="evenodd" d="M18.5742 35.6602C20.4389 36.6096 21.9155 38.0158 23.0039 39.8789C22.957 39.9023 22.9102 39.9258 22.8633 39.9492C21.5028 39.4914 20.413 38.6711 19.5938 37.4883C19.2331 36.8837 18.8933 36.2743 18.5742 35.6602Z" fill="#E0E3E6"/>
<path fill-rule="evenodd" clip-rule="evenodd" d="M15.4804 36.7852C15.7212 37.1087 15.979 37.4251 16.2539 37.7344C16.598 37.9885 16.973 38.1877 17.3789 38.332C17.2148 38.5196 17.0507 38.707 16.8867 38.8945C17.1544 39.385 17.5294 39.7717 18.0117 40.0547C19.1596 40.6447 20.3784 40.9962 21.6679 41.1094C22.364 41.1599 23.0554 41.2184 23.7421 41.2852C24.4218 42.8788 24.7852 44.5429 24.832 46.2773C22.2304 46.2773 19.6289 46.2773 17.0273 46.2773C17.039 44.6131 17.0273 42.949 16.9921 41.2852C16.7359 40.1852 16.0796 39.4352 15.0234 39.0352C14.8344 39.3075 14.7055 39.6121 14.6367 39.9492C14.9808 40.1872 15.2972 40.4685 15.5859 40.793C15.6989 40.9956 15.7927 41.2065 15.8671 41.4258C15.9023 43.0428 15.914 44.66 15.9023 46.2773C15.1523 46.2773 14.4023 46.2773 13.6523 46.2773C13.6208 44.306 13.6559 42.3372 13.7578 40.3711C14.033 39.024 14.6072 37.8287 15.4804 36.7852Z" fill="#FAD56F"/>
<path fill-rule="evenodd" clip-rule="evenodd" d="M18.8555 38.4727C19.1908 38.8433 19.5424 39.2066 19.9102 39.5625C19.3738 39.4821 18.8816 39.2829 18.4336 38.9648C18.5758 38.7994 18.7164 38.6354 18.8555 38.4727Z" fill="#F3BE27"/>
<path fill-rule="evenodd" clip-rule="evenodd" d="M33.9023 39.5273C34.2773 39.5273 34.6524 39.5273 35.0273 39.5273C35.0273 41.7773 35.0273 44.0273 35.0273 46.2773C34.6524 46.2773 34.2773 46.2773 33.9023 46.2773C33.9023 44.0273 33.9023 41.7773 33.9023 39.5273Z" fill="#FE826D"/>
<path fill-rule="evenodd" clip-rule="evenodd" d="M38.4023 39.5273C38.7773 39.5273 39.1524 39.5273 39.5273 39.5273C39.5273 41.7773 39.5273 44.0273 39.5273 46.2773C39.1524 46.2773 38.7773 46.2773 38.4023 46.2773C38.4023 44.0273 38.4023 41.7773 38.4023 39.5273Z" fill="#FE826D"/>
<path fill-rule="evenodd" clip-rule="evenodd" d="M29.4023 42.9023C29.7773 42.9023 30.1524 42.9023 30.5273 42.9023C30.5273 44.0273 30.5273 45.1523 30.5273 46.2773C30.1524 46.2773 29.7773 46.2773 29.4023 46.2773C29.4023 45.1523 29.4023 44.0273 29.4023 42.9023Z" fill="#FE826D"/>
</g>
<defs>
<clipPath id="clip0_1895_14574">
<rect width="36" height="36" fill="white" transform="translate(12 12)"/>
</clipPath>
</defs>
</svg>
