<svg viewBox="0 0 60 60" fill="none" xmlns="http://www.w3.org/2000/svg">
<circle cx="30" cy="30" r="29.5" fill="#F7F7F8" stroke="#C7172C"/>
<path fill-rule="evenodd" clip-rule="evenodd" d="M46.9102 38.543C46.4069 38.7829 45.9147 39.0407 45.4336 39.3165C45.4242 34.8518 45.4124 30.3752 45.3984 25.8868C45.2124 25.197 44.8022 24.6931 44.168 24.3751C37.8483 20.735 31.5436 17.0905 25.2539 13.4415C25.6123 13.1796 25.9873 12.9335 26.3789 12.7032C26.7383 12.6251 27.0664 12.6954 27.3633 12.9141C33.4571 16.4297 39.5508 19.9454 45.6445 23.461C46.2813 23.7463 46.6914 24.2268 46.875 24.9024C46.9102 29.4492 46.9219 33.996 46.9102 38.543Z" fill="#414551"/>
<path fill-rule="evenodd" clip-rule="evenodd" d="M25.2539 13.4414C31.5436 17.0904 37.8483 20.735 44.168 24.375C44.8022 24.693 45.2124 25.197 45.3984 25.8867C45.4124 30.3752 45.4242 34.8517 45.4336 39.3164C45.4336 39.3633 45.4102 39.3867 45.3633 39.3867C40.0545 36.2987 34.7341 33.2283 29.4024 30.1758C29.3323 29.8494 29.2619 29.5212 29.1914 29.1914C34.3008 32.1211 39.4101 35.0508 44.5195 37.9805C44.5238 38.0186 44.5472 38.0421 44.5899 38.0508C44.6602 36.1998 44.6836 34.3483 44.6602 32.4961C44.6836 30.1753 44.6602 27.855 44.5899 25.5352C38.2148 21.8555 31.8399 18.1758 25.4649 14.4961C25.3945 17.3316 25.3711 20.1676 25.3945 23.0039C25.1115 22.8137 24.8537 22.6028 24.6211 22.3711C24.6094 19.5585 24.6211 16.746 24.6563 13.9336C24.7515 13.6455 24.9507 13.4814 25.2539 13.4414Z" fill="#545768"/>
<path fill-rule="evenodd" clip-rule="evenodd" d="M44.6601 32.4961C44.6132 34.3242 44.5664 36.1523 44.5195 37.9805C39.4101 35.0508 34.3008 32.1211 29.1914 29.1914C28.5318 26.7454 27.2662 24.6829 25.3945 23.0039C25.3711 20.1676 25.3945 17.3316 25.4648 14.4961C31.8399 18.1758 38.2148 21.8555 44.5898 25.5352C44.6601 27.855 44.6836 30.1753 44.6601 32.4961Z" fill="#E3E7F3"/>
<path fill-rule="evenodd" clip-rule="evenodd" d="M30.5273 21.5977C30.8862 21.7655 31.2378 21.953 31.582 22.1602C31.664 24.6911 31.6757 27.2223 31.6171 29.7539C31.2384 29.5037 30.8517 29.2693 30.457 29.0508C30.4336 26.5544 30.4571 24.0701 30.5273 21.5977Z" fill="#37617B"/>
<path fill-rule="evenodd" clip-rule="evenodd" d="M24.6211 22.3712C24.8537 22.6029 25.1115 22.8138 25.3945 23.004C27.2662 24.683 28.5318 26.7455 29.1914 29.1915C29.2619 29.5213 29.3322 29.8495 29.4023 30.1759C29.4691 31.1844 29.3519 32.1688 29.0508 33.129C28.6835 33.8878 28.0976 34.4034 27.293 34.6759C28.1819 33.8033 28.5802 32.7369 28.4883 31.4766C28.247 28.416 27.0048 25.8379 24.7617 23.7423C23.901 22.9486 22.8931 22.4329 21.7383 22.1954C21.215 22.1358 20.6993 22.1709 20.1914 22.3009C21.1162 21.5794 22.1474 21.4036 23.2852 21.7735C23.7493 21.9396 24.1946 22.1388 24.6211 22.3712Z" fill="#F56F8F"/>
<path fill-rule="evenodd" clip-rule="evenodd" d="M27.293 34.6758C27.015 34.9201 26.6869 35.0724 26.3086 35.1329C25.7609 35.1978 25.2218 35.1627 24.6914 35.0274C24.5039 34.9571 24.3164 34.8868 24.1289 34.8165C22.3873 33.9656 21.0279 32.7 20.0508 31.0196C20.0416 30.958 20.065 30.9111 20.1211 30.879C20.2937 30.7526 20.4812 30.6589 20.6836 30.5977C21.5371 32.0958 22.7559 33.1856 24.3398 33.8672C26.1545 34.3249 27.2443 33.6335 27.6094 31.793C27.6762 28.8914 26.6332 26.4656 24.4805 24.5157C23.813 23.9663 23.063 23.5678 22.2305 23.3204C20.9406 23.0921 20.0382 23.5725 19.5234 24.7618C19.3555 25.1912 19.2735 25.6365 19.2773 26.0977C19.346 27.5445 19.721 28.9039 20.4023 30.1758C20.1873 30.3302 19.953 30.4474 19.6992 30.5274C18.9113 29.0307 18.466 27.4369 18.3633 25.7461C18.3644 24.9316 18.5402 24.1582 18.8906 23.4258C19.185 22.885 19.6186 22.51 20.1914 22.3008C20.6993 22.1709 21.215 22.1357 21.7383 22.1954C22.8931 22.4329 23.901 22.9486 24.7617 23.7422C27.0048 25.8378 28.247 28.416 28.4883 31.4766C28.5803 32.7368 28.1819 33.8033 27.293 34.6758Z" fill="#EC465E"/>
<path fill-rule="evenodd" clip-rule="evenodd" d="M20.6837 30.5976C20.8601 30.4272 21.071 30.3101 21.3165 30.2461C22.0422 31.4761 23.0734 32.3316 24.4103 32.8125C25.4083 33.0457 26.1232 32.7059 26.5548 31.793C26.8587 30.9581 26.8821 30.1144 26.6251 29.2617C26.0993 27.3036 24.9859 25.7919 23.2853 24.7265C21.3507 23.9948 20.3195 24.6628 20.1915 26.7304C20.2323 27.8315 20.5136 28.8627 21.0353 29.8242C20.8357 29.9592 20.6247 30.0764 20.4025 30.1758C19.7211 28.9038 19.3461 27.5444 19.2775 26.0976C19.2736 25.6364 19.3557 25.1911 19.5236 24.7617C20.0383 23.5724 20.9407 23.092 22.2306 23.3203C23.0632 23.5677 23.8131 23.9662 24.4806 24.5156C26.6334 26.4655 27.6763 28.8913 27.6095 31.793C27.2444 33.6335 26.1546 34.3248 24.34 33.8672C22.756 33.1856 21.5372 32.0957 20.6837 30.5976Z" fill="#E8EDF6"/>
<path fill-rule="evenodd" clip-rule="evenodd" d="M21.3164 30.2461C21.4797 30.094 21.6672 29.9768 21.8789 29.8946C22.3416 30.65 22.9744 31.2243 23.7773 31.6172C24.804 32.0119 25.4954 31.6955 25.8516 30.668C25.9929 28.9232 25.4186 27.4584 24.1289 26.2735C23.6336 25.815 23.0476 25.5455 22.3711 25.4649C21.4241 25.6814 20.9788 26.2791 21.0352 27.2579C21.0741 28.0347 21.2616 28.7729 21.5977 29.4727C21.4127 29.5889 21.2252 29.7061 21.0352 29.8243C20.5134 28.8628 20.2322 27.8315 20.1914 26.7305C20.3194 24.6628 21.3506 23.9949 23.2852 24.7266C24.9858 25.792 26.0991 27.3037 26.625 29.2618C26.882 30.1144 26.8586 30.9582 26.5547 31.793C26.123 32.7059 25.4082 33.0458 24.4102 32.8125C23.0733 32.3317 22.042 31.4762 21.3164 30.2461Z" fill="#EC455E"/>
<path fill-rule="evenodd" clip-rule="evenodd" d="M32.9882 24.6211C33.3613 24.8312 33.7362 25.0421 34.1132 25.2539C34.2069 27.2227 34.2069 29.1914 34.1132 31.1602C33.6988 30.9416 33.3003 30.7073 32.9179 30.457C32.8946 28.4997 32.918 26.5543 32.9882 24.6211Z" fill="#5D6073"/>
<path fill-rule="evenodd" clip-rule="evenodd" d="M21.8788 29.8945C22.0714 29.7497 22.2824 29.6325 22.5116 29.543C22.8371 29.9969 23.259 30.3367 23.7772 30.5625C24.5991 30.7021 25.021 30.3505 25.0428 29.5078C24.9218 28.1853 24.2656 27.2478 23.0741 26.6953C22.5274 26.5759 22.1641 26.775 21.9842 27.293C21.8791 27.925 21.9845 28.5109 22.3007 29.0508C22.0901 29.2266 21.8558 29.3672 21.5975 29.4727C21.2614 28.7729 21.074 28.0346 21.035 27.2578C20.9786 26.2791 21.4239 25.6814 22.371 25.4648C23.0475 25.5454 23.6334 25.8149 24.1288 26.2734C25.4185 27.4583 25.9928 28.9232 25.8514 30.668C25.4952 31.6954 24.8038 32.0119 23.7772 31.6172C22.9743 31.2242 22.3415 30.65 21.8788 29.8945Z" fill="#E7EDF6"/>
<path fill-rule="evenodd" clip-rule="evenodd" d="M42.9726 25.8164C43.3457 26.0265 43.7207 26.2374 44.0976 26.4492C44.1913 29.9414 44.1913 33.4336 44.0976 36.9258C43.6832 36.7072 43.2847 36.4729 42.9023 36.2227C42.879 32.742 42.9024 29.2733 42.9726 25.8164Z" fill="#ED475F"/>
<path fill-rule="evenodd" clip-rule="evenodd" d="M30.5272 21.5977C30.457 24.0701 30.4335 26.5544 30.4569 29.0508C30.3633 26.5545 30.3633 24.0467 30.4569 21.5273C30.4995 21.5361 30.5229 21.5595 30.5272 21.5977Z" fill="#567991"/>
<path fill-rule="evenodd" clip-rule="evenodd" d="M40.3711 26.3789C40.7831 26.6027 41.1932 26.8371 41.6016 27.082C41.6485 29.8945 41.6485 32.707 41.6016 35.5195C41.224 35.2712 40.8373 35.0368 40.4414 34.8164C40.3711 32.0043 40.3477 29.1918 40.3711 26.3789Z" fill="#EEAC42"/>
<path fill-rule="evenodd" clip-rule="evenodd" d="M22.5116 29.5429C22.8545 29.3528 23.1709 29.1185 23.4608 28.8397C23.4952 28.7488 23.507 28.655 23.4959 28.5585C23.3765 28.5472 23.2593 28.5589 23.1444 28.5936C22.8706 28.7656 22.5893 28.9179 22.3006 29.0507C21.9845 28.5108 21.879 27.9249 21.9842 27.2929C22.1641 26.7749 22.5274 26.5757 23.0741 26.6952C24.2656 27.2477 24.9218 28.1852 25.0428 29.5077C25.0209 30.3504 24.5991 30.702 23.7772 30.5624C23.259 30.3366 22.8371 29.9968 22.5116 29.5429Z" fill="#EC445C"/>
<path fill-rule="evenodd" clip-rule="evenodd" d="M37.9101 27.293C38.3241 27.5176 38.7343 27.752 39.1406 27.9961C39.1992 30.0121 39.1875 32.0277 39.1055 34.043C38.7305 33.832 38.3554 33.6211 37.9805 33.4102C37.9101 31.3717 37.8867 29.3326 37.9101 27.293Z" fill="#4A65EF"/>
<path fill-rule="evenodd" clip-rule="evenodd" d="M35.3789 28.1367C35.7928 28.3614 36.203 28.5957 36.6094 28.8398C36.6563 30.1055 36.6563 31.3711 36.6094 32.6367C36.2319 32.3884 35.8451 32.154 35.4492 31.9336C35.3789 30.6688 35.3555 29.4032 35.3789 28.1367Z" fill="#6FBA6F"/>
<path fill-rule="evenodd" clip-rule="evenodd" d="M32.9881 24.6211C32.9179 26.5543 32.8945 28.4997 32.9177 30.457C32.8243 28.4998 32.8243 26.5311 32.9177 24.5508C32.9604 24.5595 32.9838 24.5829 32.9881 24.6211Z" fill="#AFB3C2"/>
<path fill-rule="evenodd" clip-rule="evenodd" d="M22.5117 29.543C22.2825 29.6325 22.0716 29.7497 21.8789 29.8945C21.6672 29.9767 21.4797 30.0939 21.3164 30.2461C21.0709 30.3101 20.8599 30.4272 20.6836 30.5976C20.4812 30.6588 20.2937 30.7525 20.1211 30.8789C20.065 30.911 20.0416 30.9579 20.0508 31.0195C18.8834 31.6267 17.735 32.2713 16.6055 32.9531C16.3113 33.4362 16.0301 33.9284 15.7617 34.4297C14.9354 34.9191 14.1034 35.3995 13.2656 35.8711C13.2187 35.8008 13.2187 35.7305 13.2656 35.6601C13.5218 35.1594 13.7679 34.6556 14.0039 34.1484C13.7437 33.8647 13.4625 33.6069 13.1602 33.375C14.0115 32.8261 14.8904 32.3223 15.7969 31.8633C16.0279 32.0237 16.2388 32.2112 16.4297 32.4258C17.5297 31.8 18.6196 31.1672 19.6992 30.5273C19.953 30.4473 20.1873 30.3302 20.4023 30.1758C20.6246 30.0764 20.8355 29.9592 21.0352 29.8242C21.2252 29.706 21.4127 29.5889 21.5977 29.4726C21.8559 29.3672 22.0903 29.2266 22.3008 29.0508C22.5895 28.918 22.8707 28.7657 23.1445 28.5937C23.2594 28.559 23.3766 28.5473 23.4961 28.5586C23.5071 28.6551 23.4954 28.7489 23.4609 28.8398C23.171 29.1186 22.8546 29.3529 22.5117 29.543Z" fill="#3E414C"/>
<path fill-rule="evenodd" clip-rule="evenodd" d="M42.9725 25.8164C42.9023 29.2733 42.8789 32.742 42.9022 36.2227C42.8086 32.742 42.8086 29.2499 42.9022 25.7461C42.9449 25.7548 42.9683 25.7782 42.9725 25.8164Z" fill="#E7B3C3"/>
<path opacity="0.999" fill-rule="evenodd" clip-rule="evenodd" d="M29.4023 30.1758C34.7341 33.2283 40.0545 36.2987 45.3633 39.3867C45.3842 40.3511 45.3608 41.312 45.293 42.2695C45.1332 42.3584 44.9692 42.3467 44.8008 42.2344C43.0039 41.1754 41.1993 40.1325 39.3867 39.1055C38.7094 38.6492 38.0063 38.2273 37.2773 37.8398C36.9986 37.6769 36.7173 37.5128 36.4336 37.3477C34.6409 36.2989 32.8362 35.2676 31.0195 34.2539C30.3633 33.8789 29.707 33.5039 29.0508 33.1289C29.3519 32.1687 29.4691 31.1843 29.4023 30.1758Z" fill="#E3E7F3"/>
<path fill-rule="evenodd" clip-rule="evenodd" d="M33.199 33.3398C33.9479 33.3971 34.3697 33.8072 34.4647 34.5703C34.3732 35.209 34.0685 35.3262 33.5506 34.9219C33.0596 34.4681 32.9424 33.9407 33.199 33.3398Z" fill="#BBC2CE"/>
<path fill-rule="evenodd" clip-rule="evenodd" d="M31.0195 34.2539C32.8362 35.2676 34.6409 36.2989 36.4336 37.3477C36.4095 38.0654 36.3392 38.7685 36.2227 39.457C34.5081 38.5001 32.8089 37.5158 31.125 36.5039C31.1129 36.046 31.0778 35.6006 31.0195 35.168C31.0195 34.8633 31.0195 34.5586 31.0195 34.2539Z" fill="#D3D9E7"/>
<path opacity="0.998" fill-rule="evenodd" clip-rule="evenodd" d="M24.1291 34.8164C24.3167 34.8867 24.5041 34.957 24.6916 35.0273C25.6858 35.6882 26.717 36.2741 27.7854 36.7852C27.6533 36.7776 27.6299 36.8128 27.7151 36.8906C28.8066 37.4948 29.8847 38.1159 30.9495 38.7539C31.6316 39.1181 32.2879 39.5164 32.9182 39.9492C31.3364 40.8456 29.766 41.7596 28.2073 42.6914C26.4876 43.6114 24.7766 44.5958 23.0745 45.6445C22.6451 45.9182 22.1998 46.176 21.7385 46.418C20.6236 45.8021 19.522 45.1693 18.4338 44.5195C17.4773 43.9471 16.5164 43.3729 15.551 42.7969C15.3535 42.6745 15.1426 42.5924 14.9182 42.5508C14.3392 42.1499 13.7298 41.7866 13.0901 41.4609C13.0232 41.4105 13.0115 41.3519 13.0549 41.2852C14.6588 40.3724 16.2408 39.4349 17.801 38.4727C17.8289 38.5447 17.8758 38.5565 17.9416 38.5078C19.5983 37.551 21.2389 36.5784 22.8635 35.5898C23.2879 35.331 23.7098 35.0732 24.1291 34.8164Z" fill="#E2E6F2"/>
<path fill-rule="evenodd" clip-rule="evenodd" d="M22.8633 35.5898C21.2387 36.5784 19.5981 37.551 17.9414 38.5078C17.8755 38.5565 17.8287 38.5447 17.8008 38.4727C18.6193 37.302 19.4396 36.1302 20.2617 34.957C21.1268 35.1791 21.9941 35.3901 22.8633 35.5898Z" fill="#CBD1DD"/>
<path fill-rule="evenodd" clip-rule="evenodd" d="M31.0193 35.168C31.0776 35.6006 31.1127 36.046 31.1248 36.5039C32.8087 37.5158 34.5079 38.5001 36.2225 39.457C36.3241 39.5353 36.4413 39.547 36.574 39.4922C36.7909 39.3544 37.0136 39.2255 37.242 39.1055C37.2771 38.6842 37.2888 38.2624 37.2771 37.8398C38.0061 38.2273 38.7092 38.6492 39.3865 39.1055C39.4085 39.3545 39.385 39.5889 39.3162 39.8086C39.3277 39.6197 39.316 39.4321 39.281 39.2461C38.4076 39.8178 37.5052 40.3451 36.574 40.8281C36.2459 40.875 35.9178 40.875 35.5896 40.8281C34.1953 40.049 32.8125 39.2521 31.4412 38.4375C31.3503 38.403 31.2565 38.3913 31.16 38.4023C31.3148 38.1755 31.4788 37.9528 31.6521 37.7344C30.704 37.4951 29.7665 37.249 28.8396 36.9961C28.8041 36.7495 28.8509 36.5268 28.9803 36.3281C29.6521 35.9254 30.3318 35.5387 31.0193 35.168Z" fill="#5D6072"/>
<path fill-rule="evenodd" clip-rule="evenodd" d="M44.6602 32.4961C44.6836 34.3483 44.6602 36.1998 44.5898 38.0508C44.5472 38.0421 44.5237 38.0186 44.5195 37.9805C44.5664 36.1523 44.6133 34.3242 44.6602 32.4961Z" fill="#B1B5C2"/>
<path fill-rule="evenodd" clip-rule="evenodd" d="M27.785 36.7852C28.1388 36.8443 28.4904 36.9146 28.8397 36.9961C29.7665 37.249 30.704 37.4951 31.6522 37.7344C31.4789 37.9529 31.3148 38.1755 31.16 38.4024C31.072 38.5079 31.0017 38.6251 30.9491 38.7539C29.8843 38.1159 28.8062 37.4948 27.7147 36.8906C27.6295 36.8128 27.6529 36.7777 27.785 36.7852Z" fill="#C9CFDC"/>
<path fill-rule="evenodd" clip-rule="evenodd" d="M36.4336 37.3477C36.7173 37.5127 36.9986 37.6769 37.2773 37.8398C37.289 38.2624 37.2773 38.6842 37.2422 39.1055C37.0138 39.2255 36.7911 39.3544 36.5742 39.4922C36.4415 39.547 36.3243 39.5353 36.2227 39.457C36.3392 38.7685 36.4095 38.0654 36.4336 37.3477Z" fill="#B9C0CD"/>
<path fill-rule="evenodd" clip-rule="evenodd" d="M24.41 40.5117C24.41 40.793 24.41 41.0742 24.41 41.3555C24.3162 41.3555 24.2224 41.3555 24.1287 41.3555C23.116 41.312 22.284 40.9136 21.6326 40.1602C21.4031 39.7363 21.4031 39.3144 21.6326 38.8945C22.3834 38.1035 23.3091 37.7051 24.41 37.6992C24.41 38.0039 24.41 38.3086 24.41 38.6133C23.9048 38.5906 23.4712 38.7546 23.1092 39.1055C22.8441 39.4954 22.9027 39.8352 23.285 40.125C23.6233 40.3589 23.9983 40.4877 24.41 40.5117Z" fill="#596DFA"/>
<path fill-rule="evenodd" clip-rule="evenodd" d="M24.9023 37.6992C25.5955 37.7584 26.2518 37.9459 26.8711 38.2617C26.5312 38.4904 26.1796 38.7013 25.8164 38.8945C25.5392 38.7162 25.2345 38.6225 24.9023 38.6133C24.9023 38.3086 24.9023 38.0039 24.9023 37.6992Z" fill="#F8BC4F"/>
<path fill-rule="evenodd" clip-rule="evenodd" d="M31.1602 38.4025C31.2567 38.3914 31.3505 38.4032 31.4414 38.4376C32.8127 39.2522 34.1955 40.0491 35.5898 40.8282C35.918 40.8751 36.2461 40.8751 36.5742 40.8282C37.5054 40.3453 38.4078 39.8179 39.2812 39.2462C39.3162 39.4322 39.3279 39.6198 39.3164 39.8087C39.2609 39.8997 39.1905 39.9817 39.1055 40.0548C38.3674 40.459 37.6409 40.8808 36.9258 41.3204C36.3633 41.6486 35.8008 41.6486 35.2383 41.3204C34.4604 40.8616 33.687 40.4045 32.918 39.9493C32.2876 39.5166 31.6314 39.1182 30.9492 38.754C31.0018 38.6252 31.0721 38.508 31.1602 38.4025Z" fill="#4C505E"/>
<path fill-rule="evenodd" clip-rule="evenodd" d="M27.0819 38.543C27.491 38.6714 27.7254 38.9526 27.7851 39.3867C27.2673 39.41 26.7517 39.3865 26.2382 39.3164C26.153 39.2306 26.153 39.1486 26.2382 39.0703C26.5357 38.9104 26.817 38.7346 27.0819 38.543Z" fill="#77CA78"/>
<path fill-rule="evenodd" clip-rule="evenodd" d="M46.9102 38.543C46.9219 39.4807 46.9102 40.4183 46.875 41.3555C46.361 41.6885 45.8337 41.9931 45.293 42.2695C45.3608 41.312 45.3842 40.3511 45.3633 39.3867C45.4102 39.3867 45.4336 39.3633 45.4336 39.3164C45.9147 39.0406 46.4069 38.7829 46.9102 38.543Z" fill="#BBC2CE"/>
<path fill-rule="evenodd" clip-rule="evenodd" d="M26.2383 39.6679C26.756 39.6446 27.2717 39.6681 27.7852 39.7382C27.6807 40.2056 27.4112 40.5336 26.9766 40.7226C26.6009 40.5805 26.2611 40.3813 25.957 40.1249C26.1274 40.0144 26.2211 39.8621 26.2383 39.6679Z" fill="#ED4C62"/>
<path fill-rule="evenodd" clip-rule="evenodd" d="M17.3086 39.5273C17.3251 39.4854 17.3603 39.462 17.4141 39.457C19.9497 40.883 22.4693 42.3361 24.9727 43.8164C24.882 43.8802 24.7882 43.8685 24.6914 43.7812C22.2371 42.3453 19.7762 40.9274 17.3086 39.5273Z" fill="#CDD3E0"/>
<path fill-rule="evenodd" clip-rule="evenodd" d="M25.3242 40.3711C25.7894 40.4748 26.2113 40.674 26.5898 40.9688C26.0521 41.2087 25.4896 41.3376 24.9023 41.3555C24.8906 41.0732 24.9024 40.792 24.9375 40.5117C25.0744 40.4689 25.2034 40.422 25.3242 40.3711Z" fill="#DDB19E"/>
<path fill-rule="evenodd" clip-rule="evenodd" d="M24.4102 40.5117C24.4794 40.8024 24.5028 41.1071 24.4805 41.4258C24.3458 41.4458 24.2287 41.4223 24.1289 41.3555C24.2226 41.3555 24.3164 41.3555 24.4102 41.3555C24.4102 41.0742 24.4102 40.793 24.4102 40.5117Z" fill="#ADB7F6"/>
<path fill-rule="evenodd" clip-rule="evenodd" d="M42.9728 43.2539C42.9847 43.3469 42.9613 43.4289 42.9025 43.5C41.4819 44.3157 40.0522 45.1125 38.6134 45.8906C38.6753 45.986 38.6988 46.0914 38.6837 46.207C37.2185 45.3689 35.7419 44.5486 34.254 43.7461C34.2222 43.5245 34.2925 43.3487 34.465 43.2188C35.8837 42.409 37.3016 41.6004 38.7189 40.793C40.1434 41.6047 41.5613 42.4251 42.9728 43.2539Z" fill="#546AF4"/>
<path fill-rule="evenodd" clip-rule="evenodd" d="M18.0117 41.8476C18.0352 41.8476 18.0586 41.8476 18.082 41.8476C18.2227 41.8476 18.3633 41.8476 18.5039 41.8476C18.4925 41.9901 18.5042 42.1307 18.5391 42.2695C18.8462 42.162 19.1627 42.1269 19.4883 42.164C19.1375 42.2325 18.7859 42.2911 18.4336 42.3398C18.4336 42.1992 18.4336 42.0585 18.4336 41.9179C18.3398 41.9179 18.2461 41.9179 18.1523 41.9179C18.1055 41.9179 18.0586 41.9179 18.0117 41.9179C17.6367 41.9179 17.2617 41.9179 16.8867 41.9179C16.8867 41.7773 16.8867 41.6367 16.8867 41.496C16.3945 41.496 15.9023 41.496 15.4102 41.496C15.4102 41.3554 15.4102 41.2148 15.4102 41.0742C15.1746 41.0858 14.9402 41.074 14.707 41.039C14.9638 41.0039 15.2216 40.9922 15.4805 41.0038C15.4805 41.1445 15.4805 41.2851 15.4805 41.4257C15.9727 41.4257 16.4648 41.4257 16.957 41.4257C16.957 41.5663 16.957 41.707 16.957 41.8476C17.3086 41.8476 17.6602 41.8476 18.0117 41.8476Z" fill="#9FCCA5"/>
<path fill-rule="evenodd" clip-rule="evenodd" d="M18.0822 41.8477C18.0587 41.8477 18.0353 41.8477 18.0118 41.8477C17.788 41.7131 17.5301 41.6662 17.2384 41.707C17.2384 41.4258 17.2384 41.1445 17.2384 40.8633C16.7462 40.8633 16.254 40.8633 15.7618 40.8633C15.7408 40.7153 15.7643 40.5747 15.8322 40.4414C15.8991 40.55 15.9225 40.6673 15.9025 40.793C16.3712 40.793 16.84 40.793 17.3087 40.793C17.319 41.0756 17.3424 41.3568 17.379 41.6367C17.6134 41.6367 17.8478 41.6367 18.0822 41.6367C18.0822 41.707 18.0822 41.7773 18.0822 41.8477Z" fill="#E790A2"/>
<path fill-rule="evenodd" clip-rule="evenodd" d="M17.6602 39.3164C17.6767 39.2744 17.7118 39.251 17.7656 39.2461C20.3012 40.6721 22.8208 42.1252 25.3242 43.6055C25.182 43.6435 25.0414 43.6084 24.9023 43.5C22.5093 42.0691 20.0953 40.6746 17.6602 39.3164Z" fill="#CDD3E0"/>
<path fill-rule="evenodd" clip-rule="evenodd" d="M18.0117 41.918C18.0586 41.918 18.1055 41.918 18.1523 41.918C18.1343 42.0876 18.2047 42.2048 18.3633 42.2695C18.3486 42.3107 18.3251 42.3459 18.293 42.375C18.8274 42.4073 19.3547 42.3722 19.875 42.2695C19.8867 42.2929 19.8984 42.3164 19.9102 42.3398C19.2809 42.4426 18.648 42.513 18.0117 42.5508C18.0117 42.3398 18.0117 42.1289 18.0117 41.918Z" fill="#E5BAC8"/>
<path fill-rule="evenodd" clip-rule="evenodd" d="M14.9182 42.5508C15.1426 42.5924 15.3535 42.6745 15.551 42.7969C16.5164 43.3729 17.4773 43.9471 18.4338 44.5195C17.0704 44.2256 15.711 43.9091 14.3557 43.5703C14.2889 43.5198 14.2772 43.4613 14.3206 43.3945C14.5377 43.1235 14.7369 42.8423 14.9182 42.5508Z" fill="#CBD1DE"/>
<path fill-rule="evenodd" clip-rule="evenodd" d="M28.207 42.6914C27.3787 43.8668 26.5584 45.0505 25.7461 46.2422C24.856 46.0664 23.9654 45.8671 23.0742 45.6445C24.7763 44.5958 26.4873 43.6114 28.207 42.6914Z" fill="#CBD1DE"/>
<path fill-rule="evenodd" clip-rule="evenodd" d="M42.9727 43.2539C43.1423 43.3369 43.2126 43.4775 43.1836 43.6758C41.6836 44.5429 40.1836 45.4102 38.6836 46.2773C38.6836 46.2539 38.6836 46.2304 38.6836 46.207C38.6986 46.0914 38.6752 45.986 38.6133 45.8906C40.0521 45.1125 41.4818 44.3157 42.9023 43.5C42.9612 43.4289 42.9846 43.3469 42.9727 43.2539Z" fill="#4665D3"/>
<path fill-rule="evenodd" clip-rule="evenodd" d="M43.1836 43.6758C43.1836 43.793 43.1836 43.9101 43.1836 44.0273C43.1138 44.0152 43.067 44.0387 43.043 44.0977C41.6248 44.9357 40.195 45.756 38.7539 46.5586C38.6842 46.5707 38.6373 46.5472 38.6133 46.4883C38.6768 46.4384 38.7003 46.3681 38.6836 46.2773C40.1836 45.4102 41.6836 44.5429 43.1836 43.6758Z" fill="#6EA569"/>
<path fill-rule="evenodd" clip-rule="evenodd" d="M34.2539 43.7461C35.7418 44.5486 37.2184 45.3689 38.6836 46.207C38.6836 46.2304 38.6836 46.2539 38.6836 46.2773C38.7003 46.3681 38.6768 46.4384 38.6133 46.4883C37.1613 45.6699 35.7082 44.8496 34.2539 44.0273C34.2539 43.9336 34.2539 43.8398 34.2539 43.7461Z" fill="#75B471"/>
<path fill-rule="evenodd" clip-rule="evenodd" d="M20.8242 43.8164C20.5828 43.9963 20.3251 44.1604 20.0508 44.3086C20.0274 44.2969 20.0039 44.2852 19.9805 44.2734C20.0742 44.2031 20.168 44.1328 20.2617 44.0625C20.0968 44.0681 19.9444 44.1266 19.8047 44.2383C19.7929 44.2149 19.7813 44.1914 19.7695 44.168C19.9805 44.0391 20.1914 43.9101 20.4023 43.7812C20.4864 43.7353 20.4864 43.7001 20.4023 43.6758C20.2914 43.7559 20.1743 43.7911 20.0508 43.7812C20.2093 43.6844 20.3616 43.579 20.5078 43.4648C20.5351 43.5301 20.582 43.577 20.6484 43.6055C20.8867 43.5157 21.1093 43.3985 21.3164 43.2539C21.3398 43.2656 21.3633 43.2773 21.3867 43.2891C21.3285 43.3534 21.2582 43.4002 21.1758 43.4297C21.2109 43.4414 21.2461 43.4531 21.2812 43.4648C21.4077 43.3943 21.5366 43.3591 21.668 43.3594C21.3942 43.5314 21.1129 43.6837 20.8242 43.8164Z" fill="#F0D2A2"/>
<path fill-rule="evenodd" clip-rule="evenodd" d="M20.8242 43.8164C20.684 43.8762 20.5434 43.9113 20.4023 43.9219C20.6057 43.7264 20.8401 43.6093 21.1055 43.5703C20.9935 43.637 20.8997 43.719 20.8242 43.8164Z" fill="#E5E5EB"/>
<path fill-rule="evenodd" clip-rule="evenodd" d="M34.2539 44.0273C35.7083 44.8496 37.1613 45.6699 38.6133 46.4883C38.6373 46.5472 38.6842 46.5707 38.7539 46.5586C38.7351 46.671 38.7585 46.7648 38.8242 46.8398C38.7714 46.9153 38.7011 46.927 38.6133 46.875C37.1677 46.0235 35.7146 45.1915 34.2539 44.3789C34.2539 44.2617 34.2539 44.1446 34.2539 44.0273Z" fill="#EB4F5E"/>
<path fill-rule="evenodd" clip-rule="evenodd" d="M43.0429 44.0977C43.1201 44.1751 43.1319 44.2688 43.0781 44.3789C41.6735 45.2275 40.2555 46.0478 38.8242 46.8398C38.7585 46.7648 38.735 46.671 38.7539 46.5586C40.195 45.756 41.6247 44.9357 43.0429 44.0977Z" fill="#E43C46"/>
<path fill-rule="evenodd" clip-rule="evenodd" d="M20.8242 43.957C20.9814 44.0096 20.958 44.0682 20.7539 44.1328C20.9064 44.163 21.047 44.1278 21.1758 44.0273C21.2599 44.0517 21.2599 44.0868 21.1758 44.1328C20.9163 44.2748 20.6584 44.392 20.4023 44.4844C20.4961 44.4141 20.5899 44.3438 20.6836 44.2734C20.543 44.2969 20.4023 44.3203 20.2617 44.3438C20.4661 44.2306 20.6536 44.1017 20.8242 43.957Z" fill="#F0D1A1"/>
<path fill-rule="evenodd" clip-rule="evenodd" d="M22.7227 44.2383C22.8798 44.2909 22.8564 44.3494 22.6523 44.4141C22.7638 44.42 22.8575 44.4317 22.9336 44.4492C22.8164 44.5313 22.6992 44.6133 22.582 44.6953C22.6388 44.717 22.6857 44.7521 22.7227 44.8008C22.5296 44.9627 22.3186 45.0682 22.0898 45.1172C22.1836 45.0469 22.2774 44.9766 22.3711 44.9062C22.1997 44.9205 22.0356 44.9792 21.8789 45.082C21.8555 45.0703 21.832 45.0586 21.8086 45.0469C21.9023 44.9766 21.9961 44.9062 22.0898 44.8359C21.8363 44.8803 21.6019 44.9858 21.3867 45.1523C21.331 45.0922 21.3544 45.0336 21.457 44.9766C21.3633 44.9766 21.2695 44.9766 21.1758 44.9766C21.2227 44.9297 21.2695 44.8828 21.3164 44.8359C21.1995 44.8173 21.094 44.8525 21 44.9414C20.9566 44.8747 20.9683 44.8161 21.0352 44.7656C20.9414 44.7656 20.8476 44.7656 20.7539 44.7656C20.9063 44.6602 21.0586 44.5547 21.2109 44.4492C21.243 44.5367 21.2078 44.5953 21.1055 44.625C21.3895 44.6007 21.6473 44.4953 21.8789 44.3086C21.9023 44.3203 21.9258 44.332 21.9492 44.3438C21.891 44.4081 21.8207 44.4549 21.7383 44.4844C21.7734 44.4961 21.8086 44.5078 21.8438 44.5195C22.1332 44.3417 22.4261 44.248 22.7227 44.2383Z" fill="#C3D0F7"/>
<path fill-rule="evenodd" clip-rule="evenodd" d="M43.0429 44.0976C43.0669 44.0386 43.1137 44.0152 43.1835 44.0273C43.2038 44.2808 43.1804 44.5269 43.1132 44.7655C41.6643 45.6248 40.1995 46.4568 38.7186 47.2616C37.2378 46.4568 35.773 45.6248 34.3241 44.7655C34.2604 44.6461 34.237 44.5171 34.2538 44.3788C35.7145 45.1914 37.1676 46.0234 38.6132 46.8749C38.701 46.9269 38.7713 46.9152 38.8241 46.8398C40.2555 46.0478 41.6735 45.2274 43.078 44.3788C43.1318 44.2687 43.1201 44.175 43.0429 44.0976Z" fill="#E9A951"/>
</svg>
