<svg viewBox="0 0 60 60" fill="none" xmlns="http://www.w3.org/2000/svg">
<circle cx="30" cy="30" r="29.5" fill="#F7F7F8" stroke="#C7172C"/>
<path opacity="0.968" fill-rule="evenodd" clip-rule="evenodd" d="M17.8711 13.0898C18.8089 13.0781 19.7464 13.0898 20.6836 13.125C20.8125 13.1602 20.8945 13.2422 20.9297 13.3711C20.9648 13.7454 20.9765 14.1204 20.9648 14.4961C21.1179 14.5021 21.2585 14.549 21.3867 14.6367C21.6342 14.4009 21.892 14.1783 22.1602 13.9687C22.3477 13.9219 22.5351 13.9219 22.7227 13.9687C23.3416 14.5174 23.9393 15.0916 24.5156 15.6914C24.6199 15.9166 24.6434 16.1509 24.5859 16.3945C24.3364 16.6204 24.1137 16.8665 23.918 17.1328C23.9552 17.2424 24.0021 17.3479 24.0586 17.4492C24.4353 17.5001 24.8103 17.5587 25.1836 17.625C25.3125 17.6602 25.3945 17.7422 25.4297 17.8711C25.4766 18.8086 25.4766 19.7461 25.4297 20.6836C25.3945 20.8125 25.3125 20.8945 25.1836 20.9297C24.8064 20.9417 24.4314 20.9769 24.0586 21.0352C24.0117 21.1524 23.9649 21.2695 23.918 21.3867C24.1538 21.6341 24.3764 21.892 24.5859 22.1602C24.6328 22.3477 24.6328 22.5351 24.5859 22.7227C24.0117 23.3906 23.3906 24.0117 22.7227 24.5859C22.5351 24.6328 22.3477 24.6328 22.1602 24.5859C21.9342 24.3364 21.6882 24.1137 21.4219 23.918C21.3123 23.9552 21.2068 24.0021 21.1055 24.0586C21.0546 24.4353 20.996 24.8103 20.9297 25.1836C20.8945 25.3125 20.8125 25.3945 20.6836 25.4297C19.7461 25.4766 18.8086 25.4766 17.8711 25.4297C17.7422 25.3945 17.6602 25.3125 17.625 25.1836C17.5899 24.8093 17.5782 24.4343 17.5898 24.0586C17.4368 24.0525 17.2962 24.0056 17.168 23.918C16.9205 24.1538 16.6627 24.3764 16.3945 24.5859C16.207 24.6328 16.0195 24.6328 15.832 24.5859C15.1641 24.0117 14.543 23.3906 13.9688 22.7227C13.9219 22.5351 13.9219 22.3477 13.9688 22.1602C14.2183 21.9342 14.441 21.6881 14.6367 21.4219C14.5995 21.3123 14.5526 21.2068 14.4961 21.1055C14.1207 21.049 13.7457 20.9904 13.3711 20.9297C13.2422 20.8945 13.1602 20.8125 13.125 20.6836C13.0781 19.7461 13.0781 18.8086 13.125 17.8711C13.1602 17.7422 13.2422 17.6602 13.3711 17.625C13.7454 17.5899 14.1204 17.5782 14.4961 17.5898C14.5021 17.4368 14.549 17.2961 14.6367 17.168C14.4009 16.9205 14.1783 16.6627 13.9688 16.3945C13.9113 16.1509 13.9348 15.9166 14.0391 15.6914C14.6154 15.0916 15.213 14.5174 15.832 13.9687C16.0195 13.9219 16.207 13.9219 16.3945 13.9687C16.6204 14.2183 16.8665 14.441 17.1328 14.6367C17.2424 14.5995 17.3479 14.5526 17.4492 14.4961C17.5001 14.1194 17.5587 13.7444 17.625 13.3711C17.6735 13.241 17.7555 13.1472 17.8711 13.0898ZM18.7852 17.6602C19.8034 17.5067 20.4947 17.9052 20.8594 18.8555C21.0257 19.8473 20.639 20.5153 19.6992 20.8594C18.7074 21.0257 18.0394 20.639 17.6953 19.6992C17.5428 18.7383 17.9061 18.0586 18.7852 17.6602Z" fill="#000001"/>
<path fill-rule="evenodd" clip-rule="evenodd" d="M18.7148 14.2148C19.0898 14.2148 19.4649 14.2148 19.8398 14.2148C19.7612 14.8665 20.019 15.3235 20.6133 15.5859C21.2581 15.9594 21.844 15.8891 22.3711 15.375C22.6969 15.547 22.9781 15.7931 23.2148 16.1133C22.7286 16.5099 22.5996 17.0021 22.8281 17.5898C23.0264 18.3868 23.5303 18.7618 24.3398 18.7148C24.3398 19.0898 24.3398 19.4649 24.3398 19.8398C23.6908 19.76 23.2338 20.0179 22.9688 20.6133C22.5953 21.2581 22.6656 21.844 23.1797 22.3711C23.0077 22.6969 22.7616 22.9781 22.4414 23.2148C22.1712 22.8806 21.8196 22.7165 21.3867 22.7227C20.7107 22.7964 20.2068 23.1245 19.875 23.707C19.84 23.9167 19.8282 24.1276 19.8398 24.3398C19.4649 24.3398 19.0898 24.3398 18.7148 24.3398C18.7947 23.6908 18.5368 23.2338 17.9414 22.9688C17.2885 22.5728 16.7026 22.6431 16.1836 23.1797C15.8578 23.0077 15.5766 22.7616 15.3398 22.4414C15.6741 22.1712 15.8382 21.8196 15.832 21.3867C15.7576 20.7803 15.4764 20.2998 14.9883 19.9453C14.7361 19.8674 14.4783 19.8323 14.2148 19.8398C14.2148 19.4649 14.2148 19.0898 14.2148 18.7148C14.8665 18.7935 15.3235 18.5357 15.5859 17.9414C15.9819 17.2885 15.9115 16.7026 15.375 16.1836C15.547 15.8578 15.7931 15.5766 16.1133 15.3398C16.3709 15.5988 16.6756 15.7629 17.0273 15.832C17.6923 15.795 18.2196 15.5138 18.6094 14.9883C18.6873 14.7361 18.7224 14.4783 18.7148 14.2148ZM18.7852 17.6602C17.9061 18.0586 17.5428 18.7383 17.6953 19.6992C18.0394 20.639 18.7074 21.0257 19.6992 20.8594C20.639 20.5153 21.0257 19.8473 20.8594 18.8555C20.4947 17.9052 19.8034 17.5067 18.7852 17.6602Z" fill="#646A94"/>
<path opacity="0.966" fill-rule="evenodd" clip-rule="evenodd" d="M18.7147 16.4649C20.8985 16.4108 22.0119 17.4655 22.0545 19.6289C21.6415 21.3892 20.5282 22.1978 18.7147 22.0547C17.0803 21.5439 16.342 20.4306 16.4999 18.7149C16.8291 17.5536 17.5674 16.8036 18.7147 16.4649ZM18.785 17.6602C17.906 18.0587 17.5427 18.7383 17.6952 19.6992C18.0393 20.639 18.7073 21.0258 19.6991 20.8594C20.6389 20.5153 21.0256 19.8473 20.8592 18.8555C20.4946 17.9052 19.8032 17.5068 18.785 17.6602Z" fill="#010101"/>
<path opacity="0.977" fill-rule="evenodd" clip-rule="evenodd" d="M24.3398 34.465C25.8634 34.4767 27.3869 34.465 28.9102 34.4298C30.4776 34.1502 31.6846 33.3416 32.5313 32.004C33.539 29.9884 34.5469 27.9728 35.5547 25.9571C36.0894 25.1091 36.8512 24.5818 37.8398 24.3751C39.3867 24.3282 40.9336 24.3282 42.4805 24.3751C42.6726 24.4031 42.8014 24.5086 42.8672 24.6915C42.8906 24.9025 42.9141 25.1134 42.9375 25.3243C43.7791 24.6585 44.5877 23.9554 45.3633 23.215C44.5877 22.4745 43.7791 21.7714 42.9375 21.1056C42.9192 21.3693 42.8723 21.627 42.7969 21.879C42.7145 21.977 42.6091 22.0356 42.4805 22.0548C40.7227 22.0782 38.9648 22.1017 37.207 22.1251C35.6399 22.4043 34.4329 23.2129 33.5859 24.5509C32.6016 26.5196 31.6172 28.4884 30.6328 30.4571C30.0833 31.3834 29.2747 31.9577 28.207 32.1798C26.9182 32.215 25.6291 32.2267 24.3398 32.215C24.3398 31.84 24.3398 31.4649 24.3398 31.09C25.6313 31.1171 26.9204 31.0819 28.207 30.9845C28.6665 30.8607 29.0416 30.6146 29.332 30.2462C29.0416 29.8778 28.6665 29.6317 28.207 29.5079C26.9204 29.4105 25.6313 29.3753 24.3398 29.4025C24.3398 29.0275 24.3398 28.6524 24.3398 28.2775C25.5589 28.2657 26.7776 28.2775 27.9961 28.3126C28.7487 28.3961 29.4049 28.689 29.9648 29.1915C30.3578 28.4759 30.7328 27.7494 31.0898 27.0118C30.4088 26.4836 29.6354 26.1672 28.7695 26.0626C27.2932 26.0275 25.8166 26.0157 24.3398 26.0275C24.3398 25.6525 24.3398 25.2774 24.3398 24.9025C25.9338 24.8907 27.5275 24.9025 29.1211 24.9376C30.0172 25.0682 30.8375 25.3846 31.582 25.8868C31.9399 25.2416 32.2797 24.5853 32.6016 23.9181C33.6345 22.2999 35.0993 21.3272 36.9961 21.0001C38.5897 20.965 40.1834 20.9532 41.7773 20.965C41.7472 20.4413 41.7823 19.9257 41.8828 19.4181C42.1118 19.2824 42.3578 19.2473 42.6211 19.3126C44.0607 20.4712 45.4553 21.6782 46.8047 22.9337C46.8856 23.2381 46.827 23.5076 46.6289 23.7423C45.306 24.884 43.97 26.009 42.6211 27.1173C42.3578 27.1826 42.1118 27.1475 41.8828 27.0118C41.7823 26.5042 41.7472 25.9886 41.7773 25.465C40.6521 25.4532 39.5271 25.465 38.4023 25.5001C37.6037 25.5653 36.9826 25.9285 36.5391 26.59C35.9221 27.8005 35.3244 29.0192 34.7461 30.2462C35.3244 31.4732 35.9221 32.692 36.5391 33.9025C36.9826 34.5639 37.6037 34.9271 38.4023 34.9923C39.5271 35.0275 40.6521 35.0392 41.7773 35.0275C41.7472 34.5038 41.7823 33.9882 41.8828 33.4806C42.1118 33.3449 42.3578 33.3098 42.6211 33.3751C44.0607 34.5337 45.4553 35.7407 46.8047 36.9962C46.8856 37.3006 46.827 37.5701 46.6289 37.8048C45.306 38.9465 43.97 40.0715 42.6211 41.1798C42.3578 41.2451 42.1118 41.21 41.8828 41.0743C41.7823 40.5667 41.7472 40.0511 41.7773 39.5275C40.1834 39.5392 38.5897 39.5275 36.9961 39.4923C35.0993 39.1652 33.6345 38.1925 32.6016 36.5743C32.2797 35.9071 31.9399 35.2508 31.582 34.6056C30.8375 35.1078 30.0172 35.4242 29.1211 35.5548C27.5275 35.59 25.9338 35.6017 24.3398 35.59C24.3398 35.215 24.3398 34.8399 24.3398 34.465Z" fill="#010000"/>
<path fill-rule="evenodd" clip-rule="evenodd" d="M24.3398 34.4648C24.3398 33.7148 24.3398 32.9649 24.3398 32.2148C25.6291 32.2266 26.9182 32.2148 28.207 32.1797C29.2747 31.9576 30.0833 31.3833 30.6328 30.457C31.6172 28.4883 32.6016 26.5195 33.5859 24.5508C34.4329 23.2128 35.6399 22.4042 37.207 22.125C38.9648 22.1016 40.7227 22.0781 42.4805 22.0547C42.6091 22.0355 42.7145 21.9769 42.7969 21.8789C42.8723 21.6269 42.9192 21.3691 42.9375 21.1055C43.7791 21.7713 44.5877 22.4744 45.3633 23.2148C44.5877 23.9553 43.7791 24.6584 42.9375 25.3242C42.9141 25.1133 42.8906 24.9023 42.8672 24.6914C42.8014 24.5085 42.6726 24.403 42.4805 24.375C40.9336 24.3281 39.3867 24.3281 37.8398 24.375C36.8512 24.5816 36.0894 25.109 35.5547 25.957C34.5469 27.9727 33.539 29.9883 32.5312 32.0039C31.6846 33.3415 30.4776 34.1501 28.9102 34.4297C27.3869 34.4648 25.8634 34.4766 24.3398 34.4648Z" fill="#F7425D"/>
<path fill-rule="evenodd" clip-rule="evenodd" d="M24.3398 26.0274C25.8166 26.0156 27.2932 26.0274 28.7695 26.0625C29.6354 26.1671 30.4088 26.4835 31.0898 27.0117C30.7328 27.7493 30.3578 28.4758 29.9648 29.1914C29.4049 28.6889 28.7487 28.396 27.9961 28.3125C26.7776 28.2774 25.5589 28.2656 24.3398 28.2774C24.3398 27.5273 24.3398 26.7774 24.3398 26.0274Z" fill="#E43D56"/>
<path fill-rule="evenodd" clip-rule="evenodd" d="M18.1523 28.2773C18.5273 28.2773 18.9023 28.2773 19.2773 28.2773C19.2773 28.6523 19.2773 29.0274 19.2773 29.4023C18.9023 29.4023 18.5273 29.4023 18.1523 29.4023C18.1523 29.0274 18.1523 28.6523 18.1523 28.2773Z" fill="black"/>
<path fill-rule="evenodd" clip-rule="evenodd" d="M20.4023 28.2773C20.7773 28.2773 21.1524 28.2773 21.5273 28.2773C21.5273 28.6523 21.5273 29.0274 21.5273 29.4023C21.1524 29.4023 20.7773 29.4023 20.4023 29.4023C20.4023 29.0274 20.4023 28.6523 20.4023 28.2773Z" fill="black"/>
<path fill-rule="evenodd" clip-rule="evenodd" d="M18.1523 31.0898C18.5273 31.0898 18.9023 31.0898 19.2773 31.0898C19.2773 31.4648 19.2773 31.8399 19.2773 32.2148C18.9023 32.2148 18.5273 32.2148 18.1523 32.2148C18.1523 31.8399 18.1523 31.4648 18.1523 31.0898Z" fill="black"/>
<path fill-rule="evenodd" clip-rule="evenodd" d="M20.4023 31.0898C20.7773 31.0898 21.1524 31.0898 21.5273 31.0898C21.5273 31.4648 21.5273 31.8399 21.5273 32.2148C21.1524 32.2148 20.7773 32.2148 20.4023 32.2148C20.4023 31.8399 20.4023 31.4648 20.4023 31.0898Z" fill="black"/>
<path fill-rule="evenodd" clip-rule="evenodd" d="M33.9727 31.582C34.0342 31.5728 34.0811 31.5962 34.1133 31.6523C34.6227 32.6946 35.15 33.7259 35.6953 34.7461C36.2422 35.4593 36.957 35.9164 37.8398 36.1172C39.3867 36.1641 40.9336 36.1641 42.4805 36.1172C42.6091 36.098 42.7145 36.0393 42.7969 35.9414C42.8723 35.6894 42.9192 35.4316 42.9375 35.168C43.755 35.8213 44.5519 36.501 45.3281 37.207C45.375 37.2539 45.375 37.3008 45.3281 37.3477C44.5519 38.0537 43.755 38.7334 42.9375 39.3867C42.9141 39.1758 42.8906 38.9648 42.8672 38.7539C42.8014 38.5709 42.6726 38.4655 42.4805 38.4375C40.7227 38.4141 38.9648 38.3906 37.207 38.3672C35.8361 38.1215 34.7229 37.4535 33.8672 36.3633C33.3785 35.55 32.9449 34.7062 32.5664 33.832C32.8351 33.4833 33.1046 33.1318 33.375 32.7773C33.6121 32.397 33.8113 31.9985 33.9727 31.582Z" fill="#E43D56"/>
<path opacity="0.968" fill-rule="evenodd" clip-rule="evenodd" d="M17.8711 34.4649C18.8089 34.4531 19.7464 34.4649 20.6836 34.5C20.8125 34.5352 20.8945 34.6172 20.9297 34.7461C20.9648 35.1204 20.9765 35.4954 20.9648 35.8711C21.1179 35.8772 21.2585 35.924 21.3867 36.0117C21.6342 35.7759 21.892 35.5533 22.1602 35.3438C22.3477 35.2969 22.5351 35.2969 22.7227 35.3438C23.3416 35.8923 23.9393 36.4666 24.5156 37.0664C24.6199 37.2916 24.6434 37.526 24.5859 37.7695C24.3364 37.9955 24.1137 38.2415 23.918 38.5078C23.9552 38.6174 24.0021 38.7229 24.0586 38.8242C24.4353 38.8751 24.8103 38.9337 25.1836 39C25.3125 39.0352 25.3945 39.1172 25.4297 39.2461C25.4766 40.1836 25.4766 41.1211 25.4297 42.0586C25.3945 42.1875 25.3125 42.2695 25.1836 42.3047C24.8064 42.3167 24.4314 42.3519 24.0586 42.4102C24.0117 42.5274 23.9649 42.6445 23.918 42.7617C24.1538 43.0092 24.3764 43.267 24.5859 43.5352C24.6328 43.7227 24.6328 43.9101 24.5859 44.0977C24.0117 44.7656 23.3906 45.3867 22.7227 45.9609C22.5351 46.0078 22.3477 46.0078 22.1602 45.9609C21.9342 45.7114 21.6882 45.4887 21.4219 45.293C21.3123 45.3302 21.2068 45.3771 21.1055 45.4336C21.0546 45.8103 20.996 46.1853 20.9297 46.5586C20.8945 46.6875 20.8125 46.7695 20.6836 46.8047C19.7461 46.8516 18.8086 46.8516 17.8711 46.8047C17.7422 46.7695 17.6602 46.6875 17.625 46.5586C17.5899 46.1843 17.5782 45.8094 17.5898 45.4336C17.4368 45.4276 17.2962 45.3807 17.168 45.293C16.9205 45.5288 16.6627 45.7514 16.3945 45.9609C16.207 46.0078 16.0195 46.0078 15.832 45.9609C15.1641 45.3867 14.543 44.7656 13.9688 44.0977C13.9219 43.9101 13.9219 43.7227 13.9688 43.5352C14.2183 43.3093 14.441 43.0632 14.6367 42.7969C14.5995 42.6873 14.5526 42.5818 14.4961 42.4805C14.1207 42.424 13.7457 42.3654 13.3711 42.3047C13.2422 42.2695 13.1602 42.1875 13.125 42.0586C13.0781 41.1211 13.0781 40.1836 13.125 39.2461C13.1602 39.1172 13.2422 39.0352 13.3711 39C13.7454 38.9649 14.1204 38.9532 14.4961 38.9649C14.5021 38.8118 14.549 38.6712 14.6367 38.543C14.4009 38.2955 14.1783 38.0377 13.9688 37.7695C13.9113 37.526 13.9348 37.2916 14.0391 37.0664C14.6154 36.4666 15.213 35.8923 15.832 35.3438C16.0195 35.2969 16.207 35.2969 16.3945 35.3438C16.6204 35.5933 16.8665 35.816 17.1328 36.0117C17.2424 35.9745 17.3479 35.9276 17.4492 35.8711C17.5001 35.4944 17.5587 35.1194 17.625 34.7461C17.6735 34.616 17.7555 34.5222 17.8711 34.4649ZM18.7852 39.0352C19.8034 38.8817 20.4947 39.2802 20.8594 40.2305C21.0257 41.2223 20.639 41.8903 19.6992 42.2344C18.7074 42.4007 18.0394 42.014 17.6953 41.0742C17.5428 40.1133 17.9061 39.4336 18.7852 39.0352Z" fill="#000001"/>
<path fill-rule="evenodd" clip-rule="evenodd" d="M18.7148 35.5898C19.0898 35.5898 19.4649 35.5898 19.8398 35.5898C19.7612 36.2414 20.019 36.6985 20.6133 36.9609C21.2581 37.3344 21.844 37.2641 22.3711 36.75C22.6969 36.922 22.9781 37.1681 23.2148 37.4883C22.7286 37.8849 22.5996 38.3771 22.8281 38.9648C23.0264 39.7618 23.5303 40.1368 24.3398 40.0898C24.3398 40.4648 24.3398 40.8399 24.3398 41.2148C23.6908 41.135 23.2338 41.3929 22.9688 41.9883C22.5953 42.6331 22.6656 43.219 23.1797 43.7461C23.0077 44.0719 22.7616 44.3531 22.4414 44.5898C22.1712 44.2556 21.8196 44.0915 21.3867 44.0977C20.7107 44.1714 20.2068 44.4995 19.875 45.082C19.84 45.2917 19.8282 45.5026 19.8398 45.7148C19.4649 45.7148 19.0898 45.7148 18.7148 45.7148C18.7947 45.0658 18.5368 44.6088 17.9414 44.3438C17.2885 43.9478 16.7026 44.0181 16.1836 44.5547C15.8578 44.3827 15.5766 44.1366 15.3398 43.8164C15.6741 43.5462 15.8382 43.1946 15.832 42.7617C15.7576 42.1553 15.4764 41.6748 14.9883 41.3203C14.7361 41.2424 14.4783 41.2073 14.2148 41.2148C14.2148 40.8399 14.2148 40.4648 14.2148 40.0898C14.8665 40.1685 15.3235 39.9107 15.5859 39.3164C15.9819 38.6636 15.9115 38.0776 15.375 37.5586C15.547 37.2328 15.7931 36.9516 16.1133 36.7148C16.3709 36.9739 16.6756 37.1379 17.0273 37.207C17.6923 37.17 18.2196 36.8888 18.6094 36.3633C18.6873 36.1111 18.7224 35.8533 18.7148 35.5898ZM18.7852 39.0352C17.9061 39.4336 17.5428 40.1133 17.6953 41.0742C18.0394 42.014 18.7074 42.4007 19.6992 42.2344C20.639 41.8903 21.0257 41.2223 20.8594 40.2305C20.4947 39.2802 19.8034 38.8817 18.7852 39.0352Z" fill="#646A94"/>
<path opacity="0.966" fill-rule="evenodd" clip-rule="evenodd" d="M18.7147 37.8399C20.8985 37.7858 22.0119 38.8405 22.0545 41.0039C21.6415 42.7642 20.5282 43.5728 18.7147 43.4297C17.0803 42.9189 16.342 41.8056 16.4999 40.0899C16.8291 38.9287 17.5674 38.1786 18.7147 37.8399ZM18.785 39.0352C17.906 39.4336 17.5427 40.1134 17.6952 41.0742C18.0393 42.014 18.7073 42.4008 19.6991 42.2344C20.6389 41.8903 21.0256 41.2223 20.8592 40.2305C20.4946 39.2802 19.8032 38.8818 18.785 39.0352Z" fill="#010101"/>
</svg>
