<svg viewBox="0 0 1440 630" fill="none" xmlns="http://www.w3.org/2000/svg">
<path d="M0 114.45L21.92 102.9C43.68 91.35 87.52 68.25 131.2 66.15C174.88 64.05 218.72 82.95 262.08 82.95C305.6 82.95 348.8 64.05 392.32 64.05C435.68 64.05 479.52 82.95 523.2 87.15C566.88 91.35 610.72 80.85 654.4 76.65C698.08 72.45 741.92 74.55 785.6 80.85C829.28 87.15 873.12 97.65 916.8 101.85C960.48 106.05 1004.32 103.95 1047.68 108.15C1091.2 112.35 1134.4 122.85 1177.92 122.85C1221.28 122.85 1265.12 112.35 1308.8 110.25C1352.48 108.15 1396.32 114.45 1418.08 117.6L1440 120.75V0H1418.08C1396.32 0 1352.48 0 1308.8 0C1265.12 0 1221.28 0 1177.92 0C1134.4 0 1091.2 0 1047.68 0C1004.32 0 960.48 0 916.8 0C873.12 0 829.28 0 785.6 0C741.92 0 698.08 0 654.4 0C610.72 0 566.88 0 523.2 0C479.52 0 435.68 0 392.32 0C348.8 0 305.6 0 262.08 0C218.72 0 174.88 0 131.2 0C87.52 0 43.68 0 21.92 0H0V114.45Z" fill="#E05F65"/>
<path d="M0 290.85L21.92 278.25C43.68 265.65 87.52 240.45 131.2 243.6C174.88 246.75 218.72 278.25 262.08 269.85C305.6 261.45 348.8 213.15 392.32 203.7C435.68 194.25 479.52 223.65 523.2 244.65C566.88 265.65 610.72 278.25 654.4 288.75C698.08 299.25 741.92 307.65 785.6 305.55C829.28 303.45 873.12 290.85 916.8 281.4C960.48 271.95 1004.32 265.65 1047.68 274.05C1091.2 282.45 1134.4 305.55 1177.92 302.4C1221.28 299.25 1265.12 269.85 1308.8 271.95C1352.48 274.05 1396.32 307.65 1418.08 324.45L1440 341.25V118.65L1418.08 115.5C1396.32 112.35 1352.48 106.05 1308.8 108.15C1265.12 110.25 1221.28 120.75 1177.92 120.75C1134.4 120.75 1091.2 110.25 1047.68 106.05C1004.32 101.85 960.48 103.95 916.8 99.75C873.12 95.5499 829.28 85.0499 785.6 78.75C741.92 72.45 698.08 70.35 654.4 74.55C610.72 78.75 566.88 89.25 523.2 85.0499C479.52 80.85 435.68 61.95 392.32 61.95C348.8 61.95 305.6 80.85 262.08 80.85C218.72 80.85 174.88 61.95 131.2 64.05C87.52 66.15 43.68 89.25 21.92 100.8L0 112.35V290.85Z" fill="#D54149"/>
<path d="M0 372.75L21.92 354.9C43.68 337.05 87.52 301.35 131.2 306.6C174.88 311.85 218.72 358.05 262.08 350.7C305.6 343.35 348.8 282.45 392.32 271.95C435.68 261.45 479.52 301.35 523.2 330.75C566.88 360.15 610.72 379.05 654.4 383.25C698.08 387.45 741.92 376.95 785.6 373.8C829.28 370.65 873.12 374.85 916.8 371.7C960.48 368.55 1004.32 358.05 1047.68 360.15C1091.2 362.25 1134.4 376.95 1177.92 375.9C1221.28 374.85 1265.12 358.05 1308.8 360.15C1352.48 362.25 1396.32 383.25 1418.08 393.75L1440 404.25V339.15L1418.08 322.35C1396.32 305.55 1352.48 271.95 1308.8 269.85C1265.12 267.75 1221.28 297.15 1177.92 300.3C1134.4 303.45 1091.2 280.35 1047.68 271.95C1004.32 263.55 960.48 269.85 916.8 279.3C873.12 288.75 829.28 301.35 785.6 303.45C741.92 305.55 698.08 297.15 654.4 286.65C610.72 276.15 566.88 263.55 523.2 242.55C479.52 221.55 435.68 192.15 392.32 201.6C348.8 211.05 305.6 259.35 262.08 267.75C218.72 276.15 174.88 244.65 131.2 241.5C87.52 238.35 43.68 263.55 21.92 276.15L0 288.75V372.75Z" fill="#C7172C"/>
<path d="M0 479.85L21.92 486.15C43.68 492.45 87.52 505.05 131.2 516.6C174.88 528.15 218.72 538.65 262.08 542.85C305.6 547.05 348.8 544.95 392.32 548.1C435.68 551.25 479.52 559.65 523.2 559.65C566.88 559.65 610.72 551.25 654.4 539.7C698.08 528.15 741.92 513.45 785.6 506.1C829.28 498.75 873.12 498.75 916.8 500.85C960.48 502.95 1004.32 507.15 1047.68 518.7C1091.2 530.25 1134.4 549.15 1177.92 550.2C1221.28 551.25 1265.12 534.45 1308.8 533.4C1352.48 532.35 1396.32 547.05 1418.08 554.4L1440 561.75V402.15L1418.08 391.65C1396.32 381.15 1352.48 360.15 1308.8 358.05C1265.12 355.95 1221.28 372.75 1177.92 373.8C1134.4 374.85 1091.2 360.15 1047.68 358.05C1004.32 355.95 960.48 366.45 916.8 369.6C873.12 372.75 829.28 368.55 785.6 371.7C741.92 374.85 698.08 385.35 654.4 381.15C610.72 376.95 566.88 358.05 523.2 328.65C479.52 299.25 435.68 259.35 392.32 269.85C348.8 280.35 305.6 341.25 262.08 348.6C218.72 355.95 174.88 309.75 131.2 304.5C87.52 299.25 43.68 334.95 21.92 352.8L0 370.65V479.85Z" fill="#AD1229"/>
<path d="M0 631.05H21.92C43.68 631.05 87.52 631.05 131.2 631.05C174.88 631.05 218.72 631.05 262.08 631.05C305.6 631.05 348.8 631.05 392.32 631.05C435.68 631.05 479.52 631.05 523.2 631.05C566.88 631.05 610.72 631.05 654.4 631.05C698.08 631.05 741.92 631.05 785.6 631.05C829.28 631.05 873.12 631.05 916.8 631.05C960.48 631.05 1004.32 631.05 1047.68 631.05C1091.2 631.05 1134.4 631.05 1177.92 631.05C1221.28 631.05 1265.12 631.05 1308.8 631.05C1352.48 631.05 1396.32 631.05 1418.08 631.05H1440V559.65L1418.08 552.3C1396.32 544.95 1352.48 530.25 1308.8 531.3C1265.12 532.35 1221.28 549.15 1177.92 548.1C1134.4 547.05 1091.2 528.15 1047.68 516.6C1004.32 505.05 960.48 500.85 916.8 498.75C873.12 496.65 829.28 496.65 785.6 504C741.92 511.35 698.08 526.05 654.4 537.6C610.72 549.15 566.88 557.55 523.2 557.55C479.52 557.55 435.68 549.15 392.32 546C348.8 542.85 305.6 544.95 262.08 540.75C218.72 536.55 174.88 526.05 131.2 514.5C87.52 502.95 43.68 490.35 21.92 484.05L0 477.75V631.05Z" fill="#930E25"/>
</svg>
