<svg viewBox="0 0 20 21" fill="none" xmlns="http://www.w3.org/2000/svg">
<path d="M9.88 7.28063C11.16 7.34063 11.49 8.43062 11.51 8.94063H13.3C13.22 6.96063 11.81 5.75063 9.85 5.75063C7.64 5.75063 6 7.14062 6 10.2806C6 12.2206 6.93 14.5206 9.84 14.5206C12.06 14.5206 13.25 12.8706 13.28 11.5706H11.49C11.46 12.1606 11.04 12.9506 9.86 13.0106C8.55 12.9706 8 11.9506 8 10.2806C8 7.39062 9.28 7.30063 9.88 7.28063ZM10 0.140625C4.48 0.140625 0 4.62063 0 10.1406C0 15.6606 4.48 20.1406 10 20.1406C15.52 20.1406 20 15.6606 20 10.1406C20 4.62063 15.52 0.140625 10 0.140625ZM10 18.1406C5.59 18.1406 2 14.5506 2 10.1406C2 5.73063 5.59 2.14062 10 2.14062C14.41 2.14062 18 5.73063 18 10.1406C18 14.5506 14.41 18.1406 10 18.1406Z" fill="white"/>
</svg>
