<svg viewBox="0 0 5000 3500" fill="none" xmlns="http://www.w3.org/2000/svg">
<path d="M2027.7 3055.3H3163.7" stroke="#FFCF2D" stroke-width="6" stroke-miterlimit="10" stroke-linecap="round"/>
<path d="M2595.3 2050.4V2495.4C2595.3 2632.4 2666.3 2759.6 2782.9 2831.5L2947 2932.7" stroke="#66B0F0" stroke-width="6" stroke-miterlimit="10" stroke-linecap="round" stroke-linejoin="round"/>
<path d="M2506.4 2050.4V2495.4C2506.4 2632.4 2435.4 2759.6 2318.8 2831.5L2154.7 2932.7" stroke="#66B0F0" stroke-width="6" stroke-miterlimit="10" stroke-linecap="round" stroke-linejoin="round"/>
<path d="M2446.7 2050.4H2646.8C2664.5 2050.4 2678.8 2036.1 2678.8 2018.4V1967.9H2414.7V2018.4C2414.7 2036.1 2429 2050.4 2446.7 2050.4Z" fill="white" stroke="#66B0F0" stroke-width="6" stroke-miterlimit="10"/>
<path d="M2954.4 3055.3C2913.8 3055.3 2880.9 3022.4 2880.9 2981.8C2880.9 2941.2 2913.8 2908.3 2954.4 2908.3C2995 2908.3 3027.9 2941.2 3027.9 2981.8C3027.9 3022.4 2995 3055.3 2954.4 3055.3Z" fill="white" stroke="#FFCF2D" stroke-width="6" stroke-miterlimit="10"/>
<path d="M2153.1 3055.3C2112.5 3055.3 2079.6 3022.4 2079.6 2981.8C2079.6 2941.2 2112.5 2908.3 2153.1 2908.3C2193.7 2908.3 2226.6 2941.2 2226.6 2981.8C2226.6 3022.4 2193.7 3055.3 2153.1 3055.3Z" fill="white" stroke="#FFCF2D" stroke-width="6" stroke-miterlimit="10"/>
<path d="M2153.1 3039.8C2121.1 3039.8 2095.1 3013.8 2095.1 2981.8C2095.1 2949.8 2121.1 2923.8 2153.1 2923.8C2185.1 2923.8 2211.1 2949.8 2211.1 2981.8C2211.1 3013.8 2185.1 3039.8 2153.1 3039.8Z" fill="white" stroke="#FFCF2D" stroke-width="6" stroke-miterlimit="10"/>
<path d="M2954.1 3039.8C2922.1 3039.8 2896.1 3013.8 2896.1 2981.8C2896.1 2949.8 2922.1 2923.8 2954.1 2923.8C2986.1 2923.8 3012.1 2949.8 3012.1 2981.8C3012.1 3013.8 2986.1 3039.8 2954.1 3039.8Z" fill="white" stroke="#FFCF2D" stroke-width="6" stroke-miterlimit="10"/>
<path d="M2442.8 2710.4C2442.8 2710.4 2538 2640.6 2659.1 2710.4" stroke="#66B0F0" stroke-width="6" stroke-miterlimit="10" stroke-linecap="round" stroke-linejoin="round"/>
<path d="M2593 1928L2501 2869.3H2784.5L3017.6 2022.3C3060.5 1884.1 2968.2 1743.5 2824.5 1743.2H2804.5C2698.1 1742.9 2607.9 1821.8 2593 1928Z" fill="#DF6A18"/>
<path d="M2556.4 2869.3H2705.8L2682.3 2946.2C2652.8 2916.8 2611.7 2895.6 2566.8 2892.9C2562.6 2892.6 2558.5 2892.5 2554.4 2892.5L2556.4 2869.3Z" fill="#E57281"/>
<path d="M2727.8 3054.7C2735.6 2982.3 2659.2 2898.5 2566.7 2892.8C2474.2 2887.1 2417.1 2948.2 2412.6 3020.8C2411.9 3031.8 2410.9 3045.2 2413.3 3055L2727.8 3054.7Z" fill="white" stroke="#C7172C" stroke-width="6" stroke-miterlimit="10"/>
<path d="M2415.3 3028.4L2727.8 3032.1" stroke="#C7172C" stroke-width="6" stroke-miterlimit="10"/>
<path d="M2673.6 2869.3L2910.1 2725.3L2381.3 1839.4C2314.4 1733.3 2144.6 1700.5 2037.5 1765.7C1914 1840.9 1889.8 2010 1987.2 2116.8L2673.6 2869.3Z" fill="#DF6A18"/>
<path d="M2674.6 2865.3L2912.1 2723.3L2382.3 1839.4C2315.4 1733.3 2145.6 1700.5 2038.5 1765.7C1915 1840.9 1890.8 2010 1988.2 2116.8L2674.6 2865.3Z" stroke="white" stroke-width="6" stroke-miterlimit="10"/>
<path d="M2906.4 2719C2895.9 2701.6 2834.4 2719.3 2769 2758.7C2703.6 2798 2659.3 2845.4 2669.8 2862.8C2680.3 2880.2 2741.6 2861.1 2807 2821.8C2872.3 2782.5 2916.8 2736.5 2906.4 2719Z" fill="#73325A"/>
<path d="M2892 2831.6L2781.6 2901L2750.4 2866L2740.9 2855.3L2701.3 2810.9C2718.3 2793.5 2741.6 2775.1 2769.1 2758.7C2791.3 2745.4 2813.2 2734.8 2833 2727.6L2863.9 2781.9L2870.7 2793.8L2892 2831.6Z" fill="#E57281"/>
<path d="M3066.2 2906.9L2791.2 3055.2C2784.3 3047.8 2778.4 3039.1 2773.7 3029.2C2769.7 3020.9 2766.6 3012.2 2764.2 3003.4C2748 2942.6 2770.9 2872.9 2844 2838.1C2908.5 2807.4 2988.8 2825 3035.2 2865.4C3048.9 2877.5 3059.7 2891.6 3066.2 2906.9Z" fill="white" stroke="#C7172C" stroke-width="6" stroke-miterlimit="10"/>
<path d="M3051.5 2884.4L2776.4 3032.7" stroke="#C7172C" stroke-width="6" stroke-miterlimit="10" stroke-linecap="round"/>
<path d="M2863.7 2781.8C2847.9 2795 2828.5 2808.8 2806.8 2821.8C2783.6 2835.8 2760.8 2847.2 2740.7 2855.3L2699.1 2810.9C2716.1 2793.5 2741.4 2775.1 2768.9 2758.7C2791.1 2745.4 2813 2733.8 2832.8 2726.6L2863.7 2781.8Z" fill="#2D1505"/>
<path d="M2900.3 2703.6C2889.8 2686.2 2823.4 2703.5 2756.9 2743.5C2690.4 2783.5 2648.2 2830.4 2658.7 2847.8" stroke="white" stroke-width="6" stroke-miterlimit="10"/>
<path d="M3820.9 1967.9C3847 1967.9 3868.2 1946.7 3868.2 1920.6V1739.6C3868.2 1713.5 3847 1692.3 3820.9 1692.3H1190.5C1164.4 1692.3 1143.2 1713.5 1143.2 1739.6V1920.6C1143.2 1946.7 1164.4 1967.9 1190.5 1967.9H3820.9Z" fill="#2D1505"/>
<path d="M3820.1 1651.3H1191.2C1165.1 1651.3 1143.9 1672.5 1143.9 1698.6V1879.6C1143.9 1905.7 1165.1 1926.9 1191.2 1926.9H3820.1C3846.2 1926.9 3867.4 1905.7 3867.4 1879.6V1698.6C3867.4 1672.5 3846.2 1651.3 3820.1 1651.3Z" fill="white" stroke="#FFCF2D" stroke-width="6" stroke-miterlimit="10"/>
<path d="M3683.2 1927.1V3055.7" stroke="#FFCF2D" stroke-width="6" stroke-miterlimit="10" stroke-linecap="round"/>
<path d="M1388.3 1927.1V3055.7" stroke="#FFCF2D" stroke-width="6" stroke-miterlimit="10" stroke-linecap="round"/>
<path d="M1301.9 2774.8L1297.7 2777.5L1145.1 2542.4L1099.2 2545.9C1089.4 2546.7 1081.6 2537.8 1083.6 2528.1C1085.7 2518.5 1096.4 2513.5 1105.1 2518.3L1142.8 2539L1115.1 2496.2L1069.2 2499.8C1059.4 2500.6 1051.6 2491.6 1053.7 2482C1055.8 2472.4 1066.5 2467.4 1075.2 2472.2L1112.9 2492.8L1085.2 2450L1039.3 2453.6C1029.5 2454.4 1021.7 2445.4 1023.8 2435.8C1025.9 2426.2 1036.6 2421.2 1045.3 2426L1083 2446.7L1066.3 2421L1035.3 2394.5C1027.8 2388.1 1028.6 2376.3 1036.8 2370.9C1045.1 2365.5 1056.2 2369.6 1059 2379.1L1070.5 2418.2L1087.7 2444.7L1084.1 2400.7C1083.3 2390.9 1092.2 2383.1 1101.8 2385.1C1111.4 2387.1 1116.4 2397.9 1111.7 2406.5L1089.5 2447.5L1117.6 2490.8L1114 2446.9C1113.2 2437.1 1122.1 2429.3 1131.7 2431.3C1141.3 2433.3 1146.3 2444.1 1141.6 2452.7L1119.4 2493.7L1147.5 2537L1143.9 2493.1C1143.1 2483.3 1152 2475.4 1161.6 2477.5C1171.2 2479.5 1176.2 2490.3 1171.5 2498.9L1149.3 2539.9L1301.9 2774.8Z" fill="#C7172C"/>
<path d="M1558.3 2691.7C1485 2839.4 1386 2942.1 1327.5 2935C1322.7 2934.4 1318.2 2933.1 1314 2931C1258.4 2903.4 1277.6 2751.5 1357 2591.7C1391 2523.2 1430.5 2464.5 1468.9 2421.8C1520.2 2364.9 1569.5 2336.6 1601.3 2352.4C1656.9 2380 1637.6 2531.9 1558.3 2691.7Z" fill="#C7172C"/>
<path d="M1466.5 2575C1450.2 2762.2 1390.3 2913.2 1327.6 2935C1322.8 2934.4 1318.3 2933.1 1314.1 2931C1258.5 2903.4 1277.7 2751.5 1357.1 2591.7C1391.1 2523.2 1430.6 2464.5 1469 2421.8C1471.8 2468.9 1471.2 2520.8 1466.5 2575Z" fill="#FFCF2D"/>
<path d="M1601.3 2352.4L1327.6 2935" stroke="#FFCF2D" stroke-width="6" stroke-miterlimit="10"/>
<path d="M1596.1 2784.4L1557.4 2797.4L1531.6 2815.5L1575.4 2810.3C1585.2 2809.1 1593.3 2817.7 1591.7 2827.4C1590 2837.1 1579.5 2842.5 1570.6 2838.1L1528.8 2817.4L1486.5 2847.1L1530.3 2841.9C1540.1 2840.7 1548.2 2849.3 1546.6 2859C1544.9 2868.7 1534.4 2874.1 1525.5 2869.7L1483.7 2849L1441.5 2878.7L1485.3 2873.5C1495.1 2872.3 1503.2 2880.9 1501.5 2890.6C1499.8 2900.3 1489.3 2905.7 1480.4 2901.3L1438.6 2880.6L1361.3 2934.9H1352.6L1435.9 2876.4L1430.7 2830.7C1429.6 2820.9 1438.2 2812.8 1447.9 2814.5C1457.6 2816.2 1462.9 2826.8 1458.5 2835.6L1439.2 2874.1L1480.9 2844.8L1475.7 2799.1C1474.6 2789.3 1483.2 2781.2 1492.9 2782.9C1502.6 2784.6 1507.9 2795.2 1503.5 2804L1484.3 2842.4L1526 2813.1L1520.8 2767.4C1519.7 2757.6 1528.3 2749.5 1538 2751.2C1547.7 2752.9 1553 2763.5 1548.6 2772.3L1529.3 2810.8L1554.4 2793.2L1579.7 2761.2C1585.8 2753.5 1597.7 2753.8 1603.3 2761.9C1609.2 2770 1605.5 2781.3 1596.1 2784.4Z" fill="#FFCF2D"/>
<path d="M1282.4 2927.2C1277.4 2928.9 1272.1 2930.1 1266.7 2930.8C1203.7 2939 1116.7 2880.2 1064.1 2790.9C1007 2693.9 1012.2 2597.7 1075.7 2575.9C1096.3 2568.8 1120.6 2570.5 1145.8 2579.3C1198.4 2597.6 1255.4 2646.6 1294 2712.1C1351 2809.2 1345.8 2905.4 1282.4 2927.2Z" fill="white" stroke="#FFCF2D" stroke-width="6" stroke-miterlimit="10"/>
<path d="M1282.4 2927.2C1277.4 2928.9 1272.1 2930.1 1266.7 2930.8C1208.5 2904.4 1157.9 2792.6 1147.2 2656.8C1145.1 2630 1144.7 2604 1145.8 2579.3C1198.4 2597.6 1255.4 2646.6 1294 2712.1C1351 2809.2 1345.8 2905.4 1282.4 2927.2Z" fill="#FFCF2D"/>
<path d="M1051.6 2590L1266.6 2930.8" stroke="#FFCF2D" stroke-width="6" stroke-miterlimit="10"/>
<path d="M1308 2939C1377.59 2939 1434 2771.15 1434 2564.1C1434 2357.05 1377.59 2189.2 1308 2189.2C1238.41 2189.2 1182 2357.05 1182 2564.1C1182 2771.15 1238.41 2939 1308 2939Z" fill="white" stroke="#FFCF2D" stroke-width="6" stroke-miterlimit="10"/>
<path d="M1308 2189.1V2939" stroke="#FFCF2D" stroke-width="6" stroke-miterlimit="10"/>
<path d="M1388.3 2279L1308 2386.6L1239.9 2251.8" stroke="#FFCF2D" stroke-width="6" stroke-miterlimit="10" stroke-linecap="round"/>
<path d="M1414.4 2370.2L1307.2 2517.6L1210.8 2331.1" stroke="#FFCF2D" stroke-width="6" stroke-miterlimit="10" stroke-linecap="round"/>
<path d="M1431.1 2475.4L1306.2 2647.6L1192.1 2427.6" stroke="#FFCF2D" stroke-width="6" stroke-miterlimit="10" stroke-linecap="round"/>
<path d="M1438.9 2615.8L1306.8 2800.6L1182.3 2564.4" stroke="#FFCF2D" stroke-width="6" stroke-miterlimit="10" stroke-linecap="round"/>
<path d="M1494.8 3055.7H1120.9C1092.1 3055.7 1068.7 3032.3 1068.7 3003.5V2987.2C1068.7 2958.4 1092.1 2935 1120.9 2935H1494.8C1523.6 2935 1547 2958.4 1547 2987.2V3003.5C1547 3032.4 1523.6 3055.7 1494.8 3055.7Z" fill="white" stroke="#66B0F0" stroke-width="6" stroke-miterlimit="10"/>
<path d="M3696 1756.4C3696 1771.3 3684.1 1783.4 3669.5 1783.4H3262.2C3247.5 1783.4 3235.7 1771.3 3235.7 1756.4C3235.7 1741.5 3247.6 1729.4 3262.2 1729.4H3669.5C3684.1 1729.4 3696 1741.5 3696 1756.4Z" fill="#C7172C"/>
<path d="M3524.1 1475.2H3357.4V1591.2H3679.4C3659 1522.4 3595.8 1475.2 3524.1 1475.2Z" fill="white" stroke="#FFCF2D" stroke-width="6" stroke-miterlimit="10"/>
<path d="M3387.4 1475.2V1591.2L3318.4 1591.3V1475.2H3387.4Z" fill="#FFCF2D" stroke="#FFCF2D" stroke-width="6" stroke-miterlimit="10"/>
<path d="M3934.7 1588.9L3679.4 1591.2C3679.4 1591.2 3743.3 1504.6 3918.7 1527.5C3918.7 1527.5 3781.5 1498.9 3642.3 1527.5" stroke="#FFCF2D" stroke-width="6" stroke-miterlimit="10"/>
<path d="M3679.4 1591.2C3679.4 1591.2 3791.3 1529.7 3927.7 1559.5" stroke="#FFCF2D" stroke-width="6" stroke-miterlimit="10"/>
<path d="M3707.9 1686.1C3707.9 1697 3709.6 1706.9 3712.3 1714.2H3589.8C3583.5 1714.2 3578.3 1708.7 3578.3 1702V1670.3C3578.3 1663.5 3583.4 1658.1 3589.8 1658.1H3712.3C3709.6 1665.3 3707.9 1675.2 3707.9 1686.1Z" fill="#FFCF2D"/>
<path d="M3578.4 1670.3V1702C3578.4 1708.8 3583.9 1714.2 3590.6 1714.2H3722.2V1716.5C3722.2 1722.1 3717.7 1726.6 3712.1 1726.6H3251.8C3246.2 1726.6 3241.7 1722.1 3241.7 1716.5V1655.7C3241.7 1650.1 3246.2 1645.6 3251.8 1645.6H3712.1C3717.7 1645.6 3722.2 1650.1 3722.2 1655.7V1658H3590.6C3583.9 1658.1 3578.4 1663.5 3578.4 1670.3Z" fill="white"/>
<path d="M3578.4 1670.3V1702C3578.4 1708.8 3583.9 1714.2 3590.6 1714.2H3722.2V1716.5C3722.2 1722.1 3717.7 1726.6 3712.1 1726.6H3251.8C3246.2 1726.6 3241.7 1722.1 3241.7 1716.5V1655.7C3241.7 1650.1 3246.2 1645.6 3251.8 1645.6H3712.1C3717.7 1645.6 3722.2 1650.1 3722.2 1655.7V1658H3590.6C3583.9 1658.1 3578.4 1663.5 3578.4 1670.3Z" stroke="#FFCF2D" stroke-width="6" stroke-miterlimit="10"/>
<path d="M3406.9 1805.1C3402.1 1809.6 3399.1 1817.8 3399.1 1824.7C3399.1 1838.4 3411.1 1852.5 3425.9 1852.5H3794.7C3794.7 1858.9 3789.5 1864.2 3783 1864.2H3337.9C3326 1864.2 3315.2 1859.7 3307.4 1852.5C3299.6 1845.3 3294.7 1835.3 3294.7 1824.2C3294.7 1802.1 3314 1784.2 3337.9 1784.2H3783C3789.4 1784.2 3794.7 1789.4 3794.7 1795.9V1798H3425.9C3418.4 1797.9 3411.7 1800.7 3406.9 1805.1Z" fill="#FFCF2D"/>
<path d="M3768 1797.9V1851.5H3794.6V1856H3424.6C3420.5 1856 3416.5 1855.2 3412.9 1853.7C3409 1852.1 3405.4 1849.8 3402.5 1846.8C3396.8 1841.1 3393.3 1833.3 3393.3 1824.7C3393.3 1807.4 3407.3 1793.4 3424.6 1793.4H3794.6V1797.9H3768Z" fill="#C7172C"/>
<path d="M3778.3 1797.9V1851.5H3425.9C3411.1 1851.5 3399.1 1839.5 3399.1 1824.7C3399.1 1817.3 3402.1 1810.6 3406.9 1805.7C3411.7 1800.9 3418.4 1797.9 3425.8 1797.9H3778.3Z" fill="white"/>
<path d="M3778.3 1797.9V1851.5" stroke="#C7172C" stroke-width="5" stroke-miterlimit="10"/>
<path d="M3475 1835.9V1880.6H3444.1V1841.6C3444.1 1832.3 3436.6 1824.7 3427.2 1824.7H3413.4V1819H3458.1C3467.5 1819 3475 1826.6 3475 1835.9Z" fill="#C7172C"/>
<path d="M3796.1 1593.7H3270.7C3257.1 1593.7 3246.1 1604.7 3246.1 1618.3C3246.2 1631.8 3257.1 1642.8 3270.7 1642.8H3796.1C3809.7 1642.8 3820.7 1631.8 3820.7 1618.2C3820.6 1604.7 3809.6 1593.7 3796.1 1593.7Z" fill="#66B0F0"/>
<path d="M3676.9 1642.9H3671.6C3672.2 1644.5 3673.7 1648.5 3677 1648.5C3679 1648.5 3688.8 1647 3688.8 1618.3C3688.8 1608.1 3687.6 1600.3 3685.2 1595C3682.3 1588.7 3678.5 1588 3677.1 1588C3673.7 1588 3672.2 1592.1 3671.6 1593.7H3676.9C3677.1 1593.3 3677.3 1593.1 3677.4 1593C3679.2 1593.5 3684 1598.5 3684 1618.3C3684 1638.1 3679.2 1643 3677.4 1643.6C3677.2 1643.4 3677 1643.2 3676.9 1642.9Z" fill="#2D1505"/>
<path d="M3720.3 1642.9H3715C3715.6 1644.5 3717.1 1648.5 3720.4 1648.5C3722.4 1648.5 3732.2 1647 3732.2 1618.3C3732.2 1608.1 3731 1600.3 3728.6 1595C3725.7 1588.7 3721.9 1588 3720.5 1588C3717.1 1588 3715.6 1592.1 3715 1593.7H3720.3C3720.5 1593.3 3720.7 1593.1 3720.8 1593C3722.6 1593.5 3727.4 1598.5 3727.4 1618.3C3727.4 1638.1 3722.6 1643 3720.8 1643.6C3720.7 1643.4 3720.5 1643.2 3720.3 1642.9Z" fill="#2D1505"/>
<path d="M3763.8 1642.9H3758.5C3759.1 1644.5 3760.6 1648.5 3763.9 1648.5C3766.7 1648.5 3775.7 1646.3 3775.7 1618.3C3775.7 1590.2 3766.7 1588.1 3763.9 1588.1C3760.5 1588.1 3759 1592.2 3758.4 1593.8H3763.7C3763.9 1593.4 3764.1 1593.2 3764.2 1593.1C3766.2 1593.6 3770.8 1598.8 3770.8 1618.4C3770.8 1630.4 3769.1 1636.6 3767.6 1639.8C3766.4 1642.4 3765.1 1643.5 3764.2 1643.7C3764.1 1643.4 3764 1643.2 3763.8 1642.9Z" fill="#2D1505"/>
<path d="M3546.4 1642.9H3541.1C3541.7 1644.5 3543.2 1648.5 3546.5 1648.5C3548.5 1648.5 3558.3 1647 3558.3 1618.3C3558.3 1590.2 3549.3 1588.1 3546.5 1588.1C3543.1 1588.1 3541.6 1592.2 3541 1593.8H3546.3C3546.5 1593.4 3546.7 1593.2 3546.8 1593.1C3548.8 1593.6 3553.4 1598.8 3553.4 1618.4C3553.4 1638.2 3548.6 1643.1 3546.8 1643.7C3546.8 1643.4 3546.6 1643.2 3546.4 1642.9Z" fill="#2D1505"/>
<path d="M3589.9 1642.9H3584.6C3585.2 1644.5 3586.7 1648.5 3590 1648.5C3591.9 1648.5 3595.4 1647.7 3598.1 1642.1C3600.5 1637 3601.8 1629 3601.8 1618.3C3601.8 1607.6 3600.6 1599.6 3598.1 1594.5C3595.4 1588.9 3591.9 1588.1 3590 1588.1C3586.6 1588.1 3585.1 1592.2 3584.5 1593.8H3589.8C3590 1593.4 3590.2 1593.2 3590.3 1593.1C3591.5 1593.3 3592.7 1594.6 3593.7 1596.7C3595.1 1599.7 3596.9 1605.9 3596.9 1618.4C3596.9 1630.8 3595.2 1637 3593.7 1640.1C3592.7 1642.2 3591.4 1643.5 3590.3 1643.7C3590.2 1643.4 3590.1 1643.2 3589.9 1642.9Z" fill="#2D1505"/>
<path d="M3633.4 1642.9H3628.1C3628.7 1644.5 3630.2 1648.5 3633.5 1648.5C3636.3 1648.5 3645.3 1646.3 3645.3 1618.3C3645.3 1589.5 3635.5 1588.1 3633.5 1588.1C3630.1 1588.1 3628.6 1592.2 3628 1593.8H3633.3C3633.5 1593.4 3633.7 1593.2 3633.8 1593.1C3635.6 1593.6 3640.4 1598.6 3640.4 1618.4C3640.4 1638 3635.8 1643.2 3633.8 1643.7C3633.7 1643.4 3633.6 1643.2 3633.4 1642.9Z" fill="#2D1505"/>
<path d="M3416 1642.9H3410.7C3411.3 1644.5 3412.8 1648.5 3416.1 1648.5C3417.6 1648.5 3421.4 1647.8 3424.2 1641.5C3426.6 1636.3 3427.8 1628.4 3427.8 1618.2C3427.8 1608.8 3426.5 1600.9 3424.2 1595.5C3422.1 1590.7 3419.1 1587.9 3416 1587.9C3412.6 1587.9 3411.1 1592 3410.5 1593.6H3415.8C3416 1593.3 3416.1 1593 3416.2 1592.9C3416.8 1593.2 3418.2 1594.3 3419.6 1597.5C3421.1 1600.8 3422.8 1607.1 3422.8 1618.1C3422.8 1637.9 3418 1642.8 3416.2 1643.4C3416.3 1643.4 3416.2 1643.2 3416 1642.9Z" fill="#2D1505"/>
<path d="M3459.5 1642.9H3454.2C3454.8 1644.5 3456.3 1648.5 3459.6 1648.5C3461.1 1648.5 3464.9 1647.8 3467.7 1641.5C3470.1 1636.3 3471.3 1628.4 3471.3 1618.2C3471.3 1590.1 3462.3 1588 3459.5 1588C3456.1 1588 3454.6 1592.1 3454 1593.7H3459.3C3459.5 1593.3 3459.7 1593.1 3459.8 1593C3461.8 1593.5 3466.4 1598.7 3466.4 1618.3C3466.4 1638.1 3461.6 1643 3459.8 1643.6C3459.8 1643.4 3459.7 1643.2 3459.5 1642.9Z" fill="#2D1505"/>
<path d="M3503 1642.9H3497.7C3498.3 1644.5 3499.8 1648.5 3503.1 1648.5C3505.9 1648.5 3514.9 1646.3 3514.9 1618.3C3514.9 1607.6 3513.7 1599.6 3511.2 1594.5C3508.5 1588.9 3505 1588.1 3503.1 1588.1C3499.7 1588.1 3498.2 1592.2 3497.6 1593.8H3502.9C3503.1 1593.4 3503.3 1593.2 3503.4 1593.1C3504.6 1593.3 3505.8 1594.6 3506.8 1596.7C3508.2 1599.7 3510 1605.9 3510 1618.4C3510 1638 3505.4 1643.2 3503.4 1643.7C3503.3 1643.4 3503.1 1643.2 3503 1642.9Z" fill="#2D1505"/>
<path d="M3285.6 1642.9H3280.3C3280.9 1644.5 3282.4 1648.5 3285.7 1648.5C3288.8 1648.5 3291.7 1645.7 3293.9 1640.9C3296.3 1635.5 3297.5 1627.7 3297.5 1618.2C3297.5 1607.1 3295.5 1600.1 3293.9 1596.2C3291.7 1591 3288.7 1588 3285.7 1588C3282.3 1588 3280.8 1592.1 3280.2 1593.7H3285.5C3285.7 1593.4 3285.8 1593.2 3285.9 1593C3286.6 1593.4 3288.1 1594.8 3289.5 1598.6C3290.9 1602.1 3292.5 1608.3 3292.5 1618.2C3292.5 1629.3 3290.8 1635.5 3289.3 1638.9C3287.9 1642.1 3286.5 1643.2 3285.9 1643.5C3285.9 1643.4 3285.7 1643.2 3285.6 1642.9Z" fill="#2D1505"/>
<path d="M3329 1642.9H3323.7C3324.3 1644.5 3325.8 1648.5 3329.1 1648.5C3332.2 1648.5 3335.1 1645.7 3337.3 1640.9C3339.7 1635.5 3340.9 1627.7 3340.9 1618.2C3340.9 1598.6 3334.8 1588 3329.1 1588C3325.7 1588 3324.2 1592.1 3323.6 1593.7H3328.9C3329.1 1593.4 3329.2 1593.2 3329.3 1593C3330 1593.4 3331.4 1594.8 3332.9 1598.4C3334.3 1601.8 3335.9 1608.1 3335.9 1618.2C3335.9 1629.3 3334.2 1635.5 3332.7 1638.9C3331.3 1642.1 3329.9 1643.2 3329.3 1643.5C3329.3 1643.4 3329.2 1643.2 3329 1642.9Z" fill="#2D1505"/>
<path d="M3372.5 1642.9H3367.2C3367.8 1644.5 3369.3 1648.5 3372.6 1648.5C3374.1 1648.5 3377.8 1647.8 3380.8 1641.1C3383.2 1635.7 3384.4 1628 3384.4 1618.3C3384.4 1608.9 3383.1 1601 3380.8 1595.6C3378.7 1590.8 3375.7 1588 3372.6 1588C3369.2 1588 3367.7 1592.1 3367.1 1593.7H3372.4C3372.6 1593.4 3372.7 1593.1 3372.8 1593C3373.4 1593.3 3374.8 1594.4 3376.2 1597.6C3377.7 1600.9 3379.4 1607.2 3379.4 1618.2C3379.4 1629.5 3377.7 1635.7 3376.2 1639C3374.8 1642.1 3373.4 1643.2 3372.8 1643.4C3372.8 1643.4 3372.7 1643.2 3372.5 1642.9Z" fill="#2D1505"/>
<path d="M3610.5 890.801H3259.9C3239.6 890.801 3223.2 874.401 3223.2 854.101V503.501C3223.2 483.201 3239.6 466.801 3259.9 466.801H3610.5C3630.8 466.801 3647.2 483.201 3647.2 503.501V854.101C3647.2 874.401 3630.7 890.801 3610.5 890.801Z" fill="#C7172C"/>
<path d="M3584.9 867.3H3227.4C3207.1 867.3 3190.7 850.9 3190.7 830.6V473.1C3190.7 452.8 3207.1 436.4 3227.4 436.4H3584.9C3605.2 436.4 3621.6 452.8 3621.6 473.1V830.6C3621.6 850.9 3605.2 867.3 3584.9 867.3Z" fill="white" stroke="#DD6945" stroke-width="6" stroke-miterlimit="10"/>
<path d="M3406.2 816.801C3497.33 816.801 3571.2 742.928 3571.2 651.801C3571.2 560.674 3497.33 486.801 3406.2 486.801C3315.07 486.801 3241.2 560.674 3241.2 651.801C3241.2 742.928 3315.07 816.801 3406.2 816.801Z" stroke="#DD6945" stroke-width="6" stroke-miterlimit="10"/>
<path d="M3313.4 581L3406.2 651.8L3383.4 581.9" stroke="#DD6945" stroke-width="6" stroke-miterlimit="10" stroke-linecap="round"/>
<path d="M3112.4 1926.9H2829.7L2711 1784.3H2986.9L3112.4 1926.9Z" fill="#FFCF2D"/>
<path d="M3265.5 1934.3V2022.3L3041.5 2023.2C3012.8 2023.3 2989.5 2000.1 2989.5 1971.4V1944.1C2989.5 1925.9 2982.8 1908.4 2970.8 1894.9L2896.9 1811.9H3172.8L3243.4 1881.6C3257.6 1895.5 3265.5 1914.4 3265.5 1934.3Z" fill="white" stroke="#66B0F0" stroke-width="6" stroke-miterlimit="10"/>
<path d="M3366.3 1991.3C3356.8 2010.3 3337.2 2023.3 3314.5 2023.3H3038.5C3061.1 2023.3 3080.7 2010.3 3090.3 1991.3H3366.3Z" fill="white" stroke="#66B0F0" stroke-width="6" stroke-miterlimit="10"/>
<path d="M3195.2 1443.2L3026.8 1147.4C2986.6 1076.7 2911.5 1033.1 2830.2 1033.1H2199.5L2221.6 985.4C2219.8 989.3 2210.3 990.3 2195.8 988.3C2173.6 985.3 2139.8 975.6 2103.8 959.6C2083.2 950.5 2064.5 941 2049 932.2C2019.7 915.5 2002 900.9 2004.9 894.4L1682.9 1422.5C1612.2 1525.6 1686 1665.7 1811 1665.7C1827.8 1665.7 1844.4 1663 1860.2 1657.7C1876 1652.4 1890.9 1644.6 1904.3 1634.5L2151.6 1448.6C2166.5 1437.4 2187.8 1446.1 2190.8 1464.4L2223.1 1665.7H3065.7C3180 1665.8 3251.7 1542.4 3195.2 1443.2ZM2820.4 1466.3L2847.4 1404.9C2852 1394.4 2866.8 1394.2 2871.6 1404.6L2900.9 1466.4H2820.4V1466.3Z" fill="#C7172C"/>
<path d="M2299.9 1032.9C2299.9 981.201 2406.6 917.301 2536 901.001C2730.1 876.701 2772.1 981.201 2772.1 1032.9" stroke="#C7172C" stroke-width="6" stroke-miterlimit="10"/>
<path d="M2749.7 1033.8C2749.7 1080.1 2536 1174.9 2536 1174.9C2536 1174.9 2322.3 1080.1 2322.3 1033.8C2322.3 987.501 2423.9 933.901 2541 919.601C2709.5 899.001 2749.7 987.401 2749.7 1033.8Z" fill="#C7172C"/>
<path d="M2749.7 1033.8C2749.7 1080.1 2536 1174.9 2536 1174.9C2536 1174.9 2322.3 1080.1 2322.3 1033.8C2322.3 1033.6 2322.3 1033.4 2322.3 1033.2H2749.7C2749.7 1033.3 2749.7 1033.5 2749.7 1033.8Z" fill="white"/>
<path d="M2772 1032.8C2772 1083.9 2536 1200.1 2536 1200.1C2536 1200.1 2300 1084 2300 1032.8" stroke="white" stroke-width="6" stroke-miterlimit="10"/>
<path d="M2718.1 1663.5C2731.3 1663.5 2742 1619.8 2742 1566C2742 1512.2 2731.3 1468.5 2718.1 1468.5" stroke="white" stroke-width="5" stroke-miterlimit="10" stroke-linecap="round"/>
<path d="M2216.7 1005L2031.6 1375.1" stroke="white" stroke-width="5" stroke-miterlimit="10"/>
<path d="M2176.5 1366.6L2207.1 1568" stroke="white" stroke-width="5" stroke-miterlimit="10" stroke-linecap="round"/>
<path d="M2526 1223.8H2546" stroke="white" stroke-width="5" stroke-miterlimit="10" stroke-linecap="round"/>
<path d="M2526 1247.6H2546" stroke="white" stroke-width="5" stroke-miterlimit="10" stroke-linecap="round"/>
<path d="M2526 1271.3H2546" stroke="white" stroke-width="5" stroke-miterlimit="10" stroke-linecap="round"/>
<path d="M2526 1295H2546" stroke="white" stroke-width="5" stroke-miterlimit="10" stroke-linecap="round"/>
<path d="M2526 1318.7H2546" stroke="white" stroke-width="5" stroke-miterlimit="10" stroke-linecap="round"/>
<path d="M2526 1342.5H2546" stroke="white" stroke-width="5" stroke-miterlimit="10" stroke-linecap="round"/>
<path d="M2526 1343.6H2546" stroke="white" stroke-width="5" stroke-miterlimit="10" stroke-linecap="round"/>
<path d="M2526 1367.3H2546" stroke="white" stroke-width="5" stroke-miterlimit="10" stroke-linecap="round"/>
<path d="M2526 1391H2546" stroke="white" stroke-width="5" stroke-miterlimit="10" stroke-linecap="round"/>
<path d="M2526 1413.6H2546" stroke="white" stroke-width="5" stroke-miterlimit="10" stroke-linecap="round"/>
<path d="M2526 1437.4H2546" stroke="white" stroke-width="5" stroke-miterlimit="10" stroke-linecap="round"/>
<path d="M2526 1461.1H2546" stroke="white" stroke-width="5" stroke-miterlimit="10" stroke-linecap="round"/>
<path d="M2526 1484.8H2546" stroke="white" stroke-width="5" stroke-miterlimit="10" stroke-linecap="round"/>
<path d="M2526 1508.5H2546" stroke="white" stroke-width="5" stroke-miterlimit="10" stroke-linecap="round"/>
<path d="M2526 1532.3H2546" stroke="white" stroke-width="5" stroke-miterlimit="10" stroke-linecap="round"/>
<path d="M2526 1556H2546" stroke="white" stroke-width="5" stroke-miterlimit="10" stroke-linecap="round"/>
<path d="M2526 1579.7H2546" stroke="white" stroke-width="5" stroke-miterlimit="10" stroke-linecap="round"/>
<path d="M2526 1603.4H2546" stroke="white" stroke-width="5" stroke-miterlimit="10" stroke-linecap="round"/>
<path d="M2526 1604.6H2546" stroke="white" stroke-width="5" stroke-miterlimit="10" stroke-linecap="round"/>
<path d="M2526 1628.3H2546" stroke="white" stroke-width="5" stroke-miterlimit="10" stroke-linecap="round"/>
<path d="M2526 1652H2546" stroke="white" stroke-width="5" stroke-miterlimit="10" stroke-linecap="round"/>
<path d="M2523.9 1191.5V1568" stroke="white" stroke-width="5" stroke-miterlimit="10"/>
<path d="M2706.5 1468.3H2947" stroke="white" stroke-width="5" stroke-miterlimit="10" stroke-linecap="round"/>
<path d="M2037.3 1861.8H2805.2L2733 1666.5H2120.5L2037.3 1861.8Z" fill="white" stroke="#66B0F0" stroke-width="6" stroke-miterlimit="10"/>
<path d="M2037.3 1861.8C2037.3 1834.2 2110.5 1784.3 2229.4 1777.5C2356.7 1770.3 2423.4 1850.3 2421.5 1861.8H2037.3Z" fill="#66B0F0"/>
<path d="M2421.4 1861.8C2421.4 1861.8 2387.6 1703.8 2090.9 1736L2155 1580.1C2155 1580.1 2398 1535.9 2421.5 1666.5L2421.4 1861.8Z" fill="white" stroke="#66B0F0" stroke-width="6" stroke-miterlimit="10" stroke-linejoin="round"/>
<path d="M2800.7 1849.5C2783 1825 2714.8 1799.4 2613.2 1793.6C2492.4 1786.7 2426.2 1844.1 2421.4 1859.7V1666.5C2421.4 1666.5 2507.6 1568.1 2733 1666.5L2800.7 1849.5Z" fill="white" stroke="#66B0F0" stroke-width="6" stroke-miterlimit="10" stroke-linejoin="round"/>
<path d="M2697 1768.7C2671.8 1762.3 2641.3 1757.5 2606.5 1755.5C2589.2 1754.5 2573.1 1755 2558.3 1756.6C2521.6 1760.7 2492.7 1771.7 2472.1 1783.5" stroke="#66B0F0" stroke-width="6" stroke-miterlimit="10" stroke-linecap="round" stroke-linejoin="round"/>
<path d="M2688.1 1735.4C2664 1729.7 2635.3 1725.4 2602.9 1723.5C2585.6 1722.5 2569.5 1723 2554.7 1724.6C2518 1728.7 2489.1 1739.7 2468.5 1751.5" stroke="#66B0F0" stroke-width="6" stroke-miterlimit="10" stroke-linecap="round" stroke-linejoin="round"/>
<path d="M2679.9 1702.2C2656.9 1697.1 2630.2 1693.3 2600.2 1691.5C2582.9 1690.5 2566.8 1691 2552 1692.6C2515.3 1696.7 2486.4 1707.7 2465.8 1719.5" stroke="#66B0F0" stroke-width="6" stroke-miterlimit="10" stroke-linecap="round" stroke-linejoin="round"/>
<path d="M2712.9 1657.7L2776.5 1830.9" stroke="#66B0F0" stroke-width="6" stroke-miterlimit="10"/>
<path d="M2805.3 1861.8H2421.4V1859.7C2426.2 1844.1 2492.4 1786.7 2613.2 1793.6C2714.8 1799.4 2783 1825 2800.7 1849.5L2805.3 1861.8Z" fill="#66B0F0"/>
<path d="M2658.5 1033.1C2658.5 1033.1 2586.9 1070.4 2487.5 1055.4C2462.8 1051.7 2436.3 1044.7 2408.9 1033.1V912.7L2537.7 832.5L2557 864.6L2658.5 1033.1Z" fill="#E57281"/>
<path d="M2544.8 842C2552.5 856.3 2553.8 873.3 2548.2 888.6L2487.5 1055.4C2462.8 1051.7 2436.3 1044.7 2408.9 1033.1V912.7L2538.3 830L2544.8 842Z" fill="#2D1505"/>
<path d="M2533.7 788.1C2533.7 788.1 2548.8 653.8 2495.1 641.5C2454.1 632.1 2433.7 663 2433.7 663C2433.7 663 2411.5 630.6 2377.1 645.8C2344.4 660.2 2346.7 705.1 2361.4 701.5C2376.1 697.9 2347.2 669.1 2316.3 690.4C2282.1 713.9 2316.3 752.7 2316.3 752.7C2316.3 752.7 2291 740.5 2279.3 765.4C2264.8 796.3 2347.6 862.9 2347.6 862.9L2533.7 788.1Z" fill="#2D1505"/>
<path d="M2451.9 723.2L2366 757.7C2345.3 766 2335.2 789.7 2343.5 810.3L2381 903.8C2394.8 938.3 2434.4 955.1 2468.8 941.3L2504.5 927C2539 913.2 2555.8 873.6 2542 839.2L2504.5 745.7C2496.2 725 2472.5 714.9 2451.9 723.2Z" fill="#E57281"/>
<path d="M2559.3 832.2L2542 839.2L2523.2 792.4L2540.5 785.4C2550.8 781.3 2562.4 786.3 2566.5 796.5L2570.4 806.2C2574.6 816.4 2569.6 828 2559.3 832.2Z" fill="#E57281"/>
<path d="M2362.4 907.4L2379.7 900.4L2362.2 856.9L2344.9 863.9C2334.6 868 2329.7 879.7 2333.8 889.9L2336.4 896.3C2340.5 906.5 2352.1 911.5 2362.4 907.4Z" fill="#2D1505"/>
<path d="M2538.2 817.201C2535 809.101 2538.9 800.001 2547 796.701" stroke="#2D1505" stroke-width="5" stroke-miterlimit="10" stroke-linecap="round"/>
<path d="M2454.1 773.899C2454.1 773.899 2474.4 781.499 2500.2 769.299" stroke="#2D1505" stroke-width="5" stroke-miterlimit="10" stroke-linecap="round"/>
<path d="M2411.2 808.099C2411.2 808.099 2441.5 804.999 2452.5 855.999" stroke="#2D1505" stroke-width="5" stroke-miterlimit="10" stroke-linecap="round"/>
<path d="M2497.2 872.598C2497.2 872.598 2452.5 860.598 2454.1 883.698" stroke="#2D1505" stroke-width="5" stroke-miterlimit="10" stroke-linecap="round"/>
<path d="M2490.95 825.3C2493.08 824.544 2493.3 819.669 2491.44 814.411C2489.58 809.153 2486.34 805.504 2484.2 806.26C2482.07 807.016 2481.85 811.891 2483.71 817.149C2485.57 822.407 2488.81 826.056 2490.95 825.3Z" fill="#2D1505"/>
<path d="M2408.47 859.713C2410.6 858.956 2410.82 854.081 2408.96 848.823C2407.1 843.565 2403.86 839.916 2401.72 840.672C2399.59 841.428 2399.37 846.303 2401.23 851.561C2403.09 856.819 2406.33 860.469 2408.47 859.713Z" fill="#2D1505"/>
<path d="M2490 844.499C2505.96 844.499 2518.9 831.56 2518.9 815.599C2518.9 799.638 2505.96 786.699 2490 786.699C2474.04 786.699 2461.1 799.638 2461.1 815.599C2461.1 831.56 2474.04 844.499 2490 844.499Z" stroke="#FFCF2D" stroke-width="5" stroke-miterlimit="10" stroke-linecap="round"/>
<path d="M2405 877.499C2420.96 877.499 2433.9 864.56 2433.9 848.599C2433.9 832.638 2420.96 819.699 2405 819.699C2389.04 819.699 2376.1 832.638 2376.1 848.599C2376.1 864.56 2389.04 877.499 2405 877.499Z" stroke="#FFCF2D" stroke-width="5" stroke-miterlimit="10" stroke-linecap="round"/>
<path d="M2432 838.199L2462.5 824.199" stroke="#FFCF2D" stroke-width="5" stroke-miterlimit="10" stroke-linecap="round"/>
<path d="M2227.6 974.4C2225.9 978.3 2216.3 979.3 2201.8 977.3C2179.6 974.3 2145.8 964.6 2109.8 948.6C2089.2 939.4 2070.5 930 2055.1 921.2C2025.8 904.5 2008.1 889.9 2011 883.4C2013.9 877 2036.4 880.1 2068.2 890.4C2085.3 895.9 2105 903.5 2125.8 912.8C2161.4 928.6 2192.3 944 2210.5 955.9C2222.9 963.9 2229.4 970.4 2227.6 974.4Z" fill="white" stroke="#C7172C" stroke-width="6" stroke-miterlimit="10"/>
<path d="M2397.3 771.601L2370.1 876.701L2345.6 815.701C2336.2 792.301 2347.5 765.501 2370.6 755.701L2397.3 771.601Z" fill="#2D1505"/>
<path d="M2398.3 769.7L2344.3 863.3C2338.1 874.1 2326.5 880.8 2314 880.8H2258.2C2250 880.8 2242.7 885.8 2239.6 893.3L2210.6 956L2202.1 974.3C2177.6 971 2143.5 960.4 2110.9 945.9C2098.7 940.5 2086.8 934.8 2075.8 929.1L2090.5 898.4L2116.8 843.5C2129.4 813.8 2151.1 788.8 2178.8 772.2L2233.2 739.5C2240.4 735.2 2248.7 732.9 2257.1 732.9H2349.5C2354.6 732.9 2359.6 734 2364.1 736.2L2391.9 749.4C2399.6 753.1 2402.5 762.4 2398.3 769.7Z" fill="#E57281"/>
<path d="M2267.7 772.701H2333.7C2338.6 772.701 2343.4 773.801 2347.8 775.901L2374.5 788.701C2381.8 792.201 2384.6 801.201 2380.6 808.201" stroke="#2D1505" stroke-width="5" stroke-miterlimit="10" stroke-linecap="round"/>
<path d="M2251.3 801.1H2317.3C2322.2 801.1 2327 802.2 2331.4 804.3L2358.1 817.1C2365.4 820.6 2368.2 829.6 2364.2 836.6" stroke="#2D1505" stroke-width="5" stroke-miterlimit="10" stroke-linecap="round"/>
<path d="M2232 838.201H2298C2302.9 838.201 2307.7 839.301 2312.1 841.401L2338.8 854.201C2346.1 857.701 2348.9 866.701 2344.9 873.701" stroke="#2D1505" stroke-width="5" stroke-miterlimit="10" stroke-linecap="round"/>
<path d="M2202.2 974.301C2177.7 971.001 2143.6 960.401 2111 945.901C2098.8 940.501 2086.9 934.801 2075.9 929.101L2092.5 895.201C2103.6 899.401 2114.5 904.201 2126.7 909.701C2162.3 925.501 2193.4 942.001 2211.6 953.901L2202.2 974.301Z" fill="#2D1505"/>
<path d="M2212.5 878.1H2259.3" stroke="#2D1505" stroke-width="5" stroke-miterlimit="10" stroke-linecap="round"/>
<path d="M2706.1 1665.7C2719.3 1665.7 2730 1621.06 2730 1566C2730 1510.94 2719.3 1466.3 2706.1 1466.3C2692.9 1466.3 2682.2 1510.94 2682.2 1566C2682.2 1621.06 2692.9 1665.7 2706.1 1665.7Z" fill="white"/>
<path d="M2730 1566C2730 1583.1 2729 1599.2 2727.1 1613.3C2720.9 1629.1 2708.2 1641.6 2692.2 1647.5C2685.7 1649.9 2678.6 1651.3 2671.2 1651.3H2580.5C2569.1 1651.3 2559.8 1660.6 2559.8 1672V1674.8C2559.8 1691.5 2542 1702.3 2527.2 1694.5L2484.6 1672.2C2477 1668.2 2472.2 1660.3 2472.2 1651.7V1618.4C2472.2 1605.9 2478.1 1594.2 2488 1586.7L2553 1537.8C2564 1529.5 2577.4 1525.1 2591.1 1525.1H2727.8C2729.3 1537.6 2730 1551.4 2730 1566Z" fill="#E57281"/>
<path d="M2569.4 1557.3L2509.7 1602.2C2500.6 1609.1 2495.2 1619.9 2495.2 1631.3V1661.9C2495.2 1669.8 2499.6 1677.1 2506.6 1680.7" stroke="#2D1505" stroke-width="5" stroke-miterlimit="10" stroke-linecap="round"/>
<path d="M2599.8 1570.7L2540.1 1615.6C2531 1622.5 2525.6 1633.3 2525.6 1644.7V1675.3C2525.6 1683.2 2530 1690.5 2537 1694.1" stroke="#2D1505" stroke-width="5" stroke-miterlimit="10" stroke-linecap="round"/>
<path d="M2730 1566C2730 1583.1 2729 1599.2 2727.1 1613.3C2720.9 1629.1 2708.2 1641.6 2692.2 1647.5C2686.1 1629.4 2682.1 1599.7 2682.1 1566C2682.1 1551.4 2682.9 1537.6 2684.2 1525.1H2727.9C2729.3 1537.6 2730 1551.4 2730 1566Z" fill="#2D1505"/>
<path d="M2903.7 1711.3C2963.57 1711.3 3012.1 1707.23 3012.1 1702.2C3012.1 1697.17 2963.57 1693.1 2903.7 1693.1C2843.83 1693.1 2795.3 1697.17 2795.3 1702.2C2795.3 1707.23 2843.83 1711.3 2903.7 1711.3Z" fill="#FFCF2D"/>
<path d="M2993.9 1709.1H2949.1C2907.5 1709.1 2873.9 1675.4 2873.9 1633.9V1570H3069.2V1633.8C3069.2 1675.4 3035.5 1709.1 2993.9 1709.1Z" fill="white" stroke="#FFCF2D" stroke-width="6" stroke-miterlimit="10"/>
<path d="M3096.5 1624.7H3069.1V1576H3096.5C3108.2 1576 3117.8 1585.5 3117.8 1597.3V1603.5C3117.8 1615.2 3108.2 1624.7 3096.5 1624.7Z" stroke="#FFCF2D" stroke-width="6" stroke-miterlimit="10"/>
<path d="M2971.5 1589C3025.9 1589 3070 1580.18 3070 1569.3C3070 1558.42 3025.9 1549.6 2971.5 1549.6C2917.1 1549.6 2873 1558.42 2873 1569.3C2873 1580.18 2917.1 1589 2971.5 1589Z" fill="#DF6A18" stroke="white" stroke-width="5" stroke-miterlimit="10"/>
<path d="M2874 1585.3C2874 1596.2 2917.7 1605 2971.5 1605C3025.3 1605 3069 1596.2 3069 1585.3" stroke="#FFCF2D" stroke-width="6" stroke-miterlimit="10"/>
<path d="M2874 1606.2C2874 1617.1 2917.7 1625.9 2971.5 1625.9C3025.3 1625.9 3069 1617.1 3069 1606.2" stroke="#FFCF2D" stroke-width="6" stroke-miterlimit="10"/>
<path d="M2874 1627.1C2874 1638 2917.7 1646.8 2971.5 1646.8C3025.3 1646.8 3069 1638 3069 1627.1" stroke="#FFCF2D" stroke-width="6" stroke-miterlimit="10"/>
<path d="M2875.5 1648C2875.5 1658.9 2918.5 1667.7 2971.5 1667.7C3024.5 1667.7 3067.5 1658.9 3067.5 1648" stroke="#FFCF2D" stroke-width="6" stroke-miterlimit="10"/>
<path d="M2883 1668.9C2883 1679.8 2922.6 1688.6 2971.5 1688.6C3020.4 1688.6 3060 1679.8 3060 1668.9" stroke="#FFCF2D" stroke-width="6" stroke-miterlimit="10"/>
<path d="M2967.6 1534.3C2958 1527.7 2928.1 1464.8 2965.1 1439.1C2993.5 1419.3 2999 1470.6 2985.9 1466.3C2963.1 1458.8 2949.2 1358.4 3008.7 1364.6C3034.9 1367.3 3032 1404.6 3008.7 1405.6" stroke="white" stroke-width="5" stroke-miterlimit="10" stroke-linecap="round"/>
<path d="M1804.6 1828.1H1313.1C1299.9 1828.1 1288.1 1820.1 1283.2 1807.9L1148.7 1475.5C1142.3 1459.6 1154 1442.2 1171.1 1442.2H1662.6C1675.8 1442.2 1687.6 1450.2 1692.5 1462.4L1827 1794.8C1833.5 1810.7 1821.8 1828.1 1804.6 1828.1Z" fill="white" stroke="#FFCF2D" stroke-width="6" stroke-miterlimit="10"/>
<path d="M1781.8 1830.5H1312.9C1300.4 1830.5 1289.1 1822.9 1284.4 1811.3L1156.1 1494.2C1150 1479 1161.1 1462.5 1177.5 1462.5H1646.4C1658.9 1462.5 1670.2 1470.1 1674.9 1481.7L1803.2 1798.8C1809.3 1814 1798.1 1830.5 1781.8 1830.5Z" fill="#D64B20"/>
<path d="M1493.9 1686.3C1480.1 1686.3 1467.1 1680.9 1457.3 1671.1C1449.3 1663.1 1444.9 1652.5 1444.9 1641.3C1444.9 1630 1449.3 1619.4 1457.3 1611.5C1463.8 1605 1472.5 1601.4 1481.7 1601.4C1490.9 1601.4 1499.6 1605 1506.1 1611.5C1517.2 1622.6 1517.2 1640.6 1506.1 1651.7C1496.9 1660.9 1482 1660.9 1472.8 1651.7C1471.2 1650.1 1471.2 1647.6 1472.8 1646C1474.4 1644.4 1476.9 1644.4 1478.5 1646C1484.6 1652.1 1494.4 1652.1 1500.5 1646C1508.5 1638 1508.5 1625.1 1500.5 1617.1C1495.5 1612.1 1488.8 1609.3 1481.7 1609.3C1474.6 1609.3 1467.9 1612.1 1462.9 1617.1C1456.4 1623.6 1452.9 1632.1 1452.9 1641.3C1452.9 1650.4 1456.5 1659 1462.9 1665.5C1471.2 1673.8 1482.1 1678.3 1493.8 1678.3C1505.5 1678.3 1516.5 1673.8 1524.7 1665.5C1526.3 1663.9 1528.8 1663.9 1530.4 1665.5C1532 1667.1 1532 1669.6 1530.4 1671.2C1520.7 1680.9 1507.7 1686.3 1493.9 1686.3Z" fill="white"/>
<path d="M1980.5 1863.3H1313.7C1306 1863.3 1299.8 1857.1 1299.8 1849.4V1842.7C1299.8 1835 1306 1828.8 1313.7 1828.8H1980.5C1988.2 1828.8 1994.4 1835 1994.4 1842.7V1849.4C1994.3 1857.1 1988.1 1863.3 1980.5 1863.3Z" fill="white" stroke="#FFCF2D" stroke-width="6" stroke-miterlimit="10"/>
</svg>
