<svg viewBox="0 0 25 25" fill="none" xmlns="http://www.w3.org/2000/svg">
<g clip-path="url(#clip0_2091_1981)">
<path d="M18.875 0.140625H6.125C3.0184 0.140625 0.5 2.65902 0.5 5.76562V18.5156C0.5 21.6222 3.0184 24.1406 6.125 24.1406H18.875C21.9816 24.1406 24.5 21.6222 24.5 18.5156V5.76562C24.5 2.65902 21.9816 0.140625 18.875 0.140625Z" fill="url(#paint0_radial_2091_1981)"/>
<path d="M18.875 0.140625H6.125C3.0184 0.140625 0.5 2.65902 0.5 5.76562V18.5156C0.5 21.6222 3.0184 24.1406 6.125 24.1406H18.875C21.9816 24.1406 24.5 21.6222 24.5 18.5156V5.76562C24.5 2.65902 21.9816 0.140625 18.875 0.140625Z" fill="url(#paint1_radial_2091_1981)"/>
<path d="M12.5008 2.76562C9.95478 2.76562 9.63519 2.77678 8.63525 2.82225C7.63719 2.868 6.95591 3.02597 6.35984 3.25781C5.74316 3.49725 5.22013 3.81759 4.69906 4.33884C4.17753 4.86 3.85719 5.38303 3.617 5.99944C3.3845 6.59569 3.22634 7.27725 3.18144 8.27484C3.13672 9.27487 3.125 9.59456 3.125 12.1407C3.125 14.6869 3.13625 15.0054 3.18163 16.0054C3.22756 17.0034 3.38553 17.6847 3.61719 18.2808C3.85681 18.8975 4.17716 19.4205 4.69841 19.9416C5.21938 20.4631 5.74241 20.7842 6.35862 21.0236C6.95516 21.2555 7.63653 21.4134 8.63441 21.4592C9.63444 21.5047 9.95375 21.5158 12.4997 21.5158C15.0461 21.5158 15.3646 21.5047 16.3646 21.4592C17.3626 21.4134 18.0447 21.2555 18.6412 21.0236C19.2576 20.7842 19.7799 20.4631 20.3007 19.9416C20.8223 19.4205 21.1425 18.8975 21.3828 18.2811C21.6133 17.6847 21.7715 17.0033 21.8184 16.0056C21.8633 15.0056 21.875 14.6869 21.875 12.1407C21.875 9.59456 21.8633 9.27506 21.8184 8.27503C21.7715 7.27697 21.6133 6.59578 21.3828 5.99972C21.1425 5.38303 20.8223 4.86 20.3007 4.33884C19.7793 3.81741 19.2578 3.49706 18.6406 3.25791C18.043 3.02597 17.3613 2.86791 16.3632 2.82225C15.3632 2.77678 15.0448 2.76562 12.4979 2.76562H12.5008ZM11.6598 4.45509C11.9095 4.45472 12.188 4.45509 12.5008 4.45509C15.0041 4.45509 15.3007 4.46409 16.2892 4.509C17.2032 4.55081 17.6994 4.70353 18.0298 4.83188C18.4674 5.00175 18.7793 5.20491 19.1072 5.53312C19.4353 5.86125 19.6384 6.17372 19.8088 6.61125C19.9371 6.94125 20.09 7.43738 20.1316 8.35144C20.1765 9.33975 20.1863 9.63656 20.1863 12.1386C20.1863 14.6406 20.1765 14.9375 20.1316 15.9257C20.0898 16.8397 19.9371 17.3359 19.8088 17.666C19.6389 18.1035 19.4353 18.415 19.1072 18.743C18.7791 19.0711 18.4676 19.2742 18.0298 19.4441C17.6997 19.573 17.2032 19.7254 16.2892 19.7672C15.3009 19.8121 15.0041 19.8218 12.5008 19.8218C9.99753 19.8218 9.70081 19.8121 8.71259 19.7672C7.79853 19.725 7.30241 19.5723 6.97166 19.4439C6.53422 19.274 6.22166 19.0709 5.89353 18.7428C5.56541 18.4147 5.36234 18.1029 5.192 17.6652C5.06366 17.3351 4.91075 16.839 4.86913 15.9249C4.82422 14.9366 4.81522 14.6398 4.81522 12.1362C4.81522 9.63272 4.82422 9.33741 4.86913 8.34909C4.91094 7.43503 5.06366 6.93891 5.192 6.60844C5.36197 6.17091 5.56541 5.85844 5.89363 5.53031C6.22175 5.20219 6.53422 4.99903 6.97175 4.82878C7.30222 4.69987 7.79853 4.54753 8.71259 4.50553C9.57744 4.46644 9.91259 4.45472 11.6598 4.45275V4.45509ZM17.5052 6.01172C16.8841 6.01172 16.3802 6.51516 16.3802 7.13634C16.3802 7.75744 16.8841 8.26134 17.5052 8.26134C18.1263 8.26134 18.6302 7.75744 18.6302 7.13634C18.6302 6.51525 18.1263 6.01134 17.5052 6.01134V6.01172ZM12.5008 7.32619C9.84209 7.32619 7.68641 9.48188 7.68641 12.1407C7.68641 14.7996 9.84209 16.9542 12.5008 16.9542C15.1597 16.9542 17.3146 14.7996 17.3146 12.1407C17.3146 9.48197 15.1595 7.32619 12.5007 7.32619H12.5008ZM12.5008 9.01566C14.2267 9.01566 15.6259 10.4147 15.6259 12.1407C15.6259 13.8666 14.2267 15.2658 12.5008 15.2658C10.7749 15.2658 9.37588 13.8666 9.37588 12.1407C9.37588 10.4147 10.7749 9.01566 12.5008 9.01566Z" fill="white"/>
</g>
<defs>
<radialGradient id="paint0_radial_2091_1981" cx="0" cy="0" r="1" gradientUnits="userSpaceOnUse" gradientTransform="translate(6.875 25.9891) rotate(-90) scale(23.7858 22.1227)">
<stop stop-color="#FFDD55"/>
<stop offset="0.1" stop-color="#FFDD55"/>
<stop offset="0.5" stop-color="#FF543E"/>
<stop offset="1" stop-color="#C837AB"/>
</radialGradient>
<radialGradient id="paint1_radial_2091_1981" cx="0" cy="0" r="1" gradientUnits="userSpaceOnUse" gradientTransform="translate(-3.52009 1.86947) rotate(78.681) scale(10.6324 43.827)">
<stop stop-color="#3771C8"/>
<stop offset="0.128" stop-color="#3771C8"/>
<stop offset="1" stop-color="#6600FF" stop-opacity="0"/>
</radialGradient>
<clipPath id="clip0_2091_1981">
<rect width="24" height="24" fill="white" transform="translate(0.5 0.140625)"/>
</clipPath>
</defs>
</svg>
