<svg viewBox="0 0 24 25" fill="none" xmlns="http://www.w3.org/2000/svg">
<path d="M19.9995 0.640625H4.0005C1.8 0.640625 0 2.44063 0 4.64113V20.6401C0 22.8421 1.8 24.6406 4.0005 24.6406H19.9995C22.2 24.6406 24 22.8421 24 20.6401V4.64113C24 2.44063 22.2 0.640625 19.9995 0.640625ZM4.281 21.4216L2.4705 19.6111L8.4705 13.6111L9.156 14.2966L4.281 21.4216ZM3.594 5.29663L4.2795 4.61112L11.9985 10.8301L19.7175 4.61112L20.403 5.29663L11.997 15.2026L3.591 5.29663H3.594ZM19.719 21.4216L14.844 14.2966L15.5295 13.6111L21.5295 19.6111L19.719 21.4216Z" fill="black"/>
</svg>
