<svg viewBox="0 0 19 20" fill="none" xmlns="http://www.w3.org/2000/svg">
<path d="M17.8472 13.4963L13.4306 11.5172L13.4184 11.5116C13.1892 11.4136 12.939 11.3742 12.6907 11.3971C12.4424 11.42 12.2037 11.5045 11.9963 11.6429C11.9718 11.659 11.9484 11.6765 11.9259 11.6954L9.64407 13.6407C8.19845 12.9385 6.70595 11.4572 6.00376 10.0304L7.95188 7.7138C7.97063 7.69037 7.98845 7.66693 8.00532 7.64162C8.14072 7.43471 8.22287 7.19754 8.24446 6.95122C8.26605 6.70489 8.22641 6.45705 8.12907 6.22974V6.21849L6.14438 1.79443C6.0157 1.49749 5.79444 1.25013 5.51362 1.08928C5.2328 0.928425 4.9075 0.862705 4.58626 0.901929C3.31592 1.06909 2.14986 1.69296 1.30588 2.65702C0.461903 3.62108 -0.00228837 4.85939 8.4831e-06 6.14068C8.4831e-06 13.5844 6.05626 19.6407 13.5 19.6407C14.7813 19.643 16.0196 19.1788 16.9837 18.3348C17.9477 17.4908 18.5716 16.3248 18.7388 15.0544C18.7781 14.7333 18.7125 14.4081 18.5518 14.1273C18.3911 13.8465 18.144 13.6251 17.8472 13.4963ZM13.5 18.1407C10.3185 18.1372 7.26825 16.8718 5.01856 14.6221C2.76888 12.3724 1.50348 9.32221 1.50001 6.14068C1.49648 5.2252 1.82631 4.33974 2.42789 3.64965C3.02947 2.95957 3.86167 2.51205 4.76907 2.39068C4.7687 2.39442 4.7687 2.39819 4.76907 2.40193L6.73782 6.80818L4.80001 9.12755C4.78034 9.15019 4.76247 9.17432 4.74657 9.19974C4.60549 9.41623 4.52273 9.66549 4.5063 9.92336C4.48988 10.1812 4.54035 10.439 4.65282 10.6716C5.5022 12.4088 7.25251 14.146 9.00845 14.9944C9.24279 15.1059 9.50203 15.1546 9.76083 15.1358C10.0196 15.1171 10.2692 15.0316 10.485 14.8876C10.5091 14.8713 10.5322 14.8538 10.5544 14.8351L12.8334 12.8907L17.2397 14.8641H17.25C17.1301 15.7728 16.6833 16.6067 15.9931 17.2097C15.3028 17.8128 14.4166 18.1438 13.5 18.1407Z" fill="black"/>
</svg>
