<svg viewBox="0 0 24 25" fill="none" xmlns="http://www.w3.org/2000/svg">
<g clip-path="url(#clip0_1726_28499)">
<path d="M0.51209 12.4969C0.511527 14.5134 1.04253 16.4823 2.05221 18.2178L0.415527 24.1472L6.53103 22.5562C8.22249 23.4699 10.1177 23.9486 12.0435 23.9487H12.0486C18.4062 23.9487 23.5815 18.8154 23.5842 12.5059C23.5855 9.44855 22.3866 6.57357 20.2084 4.41059C18.0306 2.2478 15.1342 1.05608 12.0481 1.05469C5.68972 1.05469 0.514809 6.18771 0.512184 12.4969" fill="url(#paint0_linear_1726_28499)"/>
<path d="M0.100313 12.4933C0.0996563 14.5823 0.649687 16.6216 1.69537 18.4192L0 24.5613L6.33478 22.9132C8.08022 23.8575 10.0454 24.3553 12.0451 24.3561H12.0502C18.636 24.3561 23.9972 19.0381 24 12.5028C24.0011 9.33551 22.7591 6.35718 20.5031 4.11672C18.2468 1.87653 15.2468 0.641927 12.0502 0.640625C5.46337 0.640625 0.102938 5.95784 0.100313 12.4933ZM3.87281 18.1096L3.63628 17.7371C2.64197 16.1683 2.11716 14.3555 2.11791 12.494C2.12006 7.06193 6.57544 2.64249 12.054 2.64249C14.7071 2.6436 17.2005 3.66983 19.0759 5.53179C20.9512 7.39393 21.9831 9.86928 21.9824 12.502C21.98 17.9341 17.5245 22.3541 12.0502 22.3541H12.0463C10.2638 22.3532 8.51569 21.8782 6.99113 20.9806L6.62831 20.7671L2.86912 21.7451L3.87281 18.1096V18.1096Z" fill="url(#paint1_linear_1726_28499)"/>
<path d="M9.06358 7.53809C8.8399 7.04479 8.60449 7.03483 8.39177 7.02618C8.21758 7.01874 8.01846 7.0193 7.81952 7.0193C7.6204 7.0193 7.29687 7.09362 7.0234 7.3899C6.74965 7.68646 5.97827 8.40311 5.97827 9.86069C5.97827 11.3184 7.04824 12.727 7.1974 12.9249C7.34674 13.1224 9.26299 16.2092 12.2979 17.3968C14.8201 18.3837 15.3334 18.1874 15.8808 18.1379C16.4283 18.0886 17.6474 17.4214 17.8961 16.7296C18.1451 16.0379 18.1451 15.445 18.0704 15.3211C17.9958 15.1976 17.7967 15.1235 17.4981 14.9754C17.1994 14.8272 15.7315 14.1105 15.4578 14.0116C15.1841 13.9128 14.985 13.8635 14.7859 14.1601C14.5868 14.4563 14.015 15.1235 13.8407 15.3211C13.6666 15.5191 13.4923 15.5438 13.1938 15.3956C12.8951 15.2469 11.9335 14.9345 10.7926 13.9252C9.90499 13.1399 9.30574 12.1702 9.13155 11.8735C8.95737 11.5773 9.1129 11.4168 9.26262 11.2692C9.39677 11.1364 9.5613 10.9232 9.71074 10.7503C9.85962 10.5773 9.9093 10.4538 10.0089 10.2562C10.1085 10.0585 10.0586 9.88544 9.98412 9.73725C9.9093 9.58906 9.32908 8.12386 9.06358 7.53809Z" fill="white"/>
</g>
<defs>
<linearGradient id="paint0_linear_1726_28499" x1="1158.85" y1="2310.31" x2="1158.85" y2="1.05469" gradientUnits="userSpaceOnUse">
<stop stop-color="#1FAF38"/>
<stop offset="1" stop-color="#60D669"/>
</linearGradient>
<linearGradient id="paint1_linear_1726_28499" x1="1200" y1="2392.71" x2="1200" y2="0.640625" gradientUnits="userSpaceOnUse">
<stop stop-color="#F9F9F9"/>
<stop offset="1" stop-color="white"/>
</linearGradient>
<clipPath id="clip0_1726_28499">
<rect width="24" height="24" fill="white" transform="translate(0 0.640625)"/>
</clipPath>
</defs>
</svg>
