<svg viewBox="0 0 25 18" fill="none" xmlns="http://www.w3.org/2000/svg">
<g clip-path="url(#clip0_2091_3736)">
<path d="M23.97 2.79215C23.8323 2.27966 23.5638 1.81243 23.1911 1.437C22.8185 1.06156 22.3547 0.791027 21.846 0.652325C19.9835 0.140625 12.4878 0.140625 12.4878 0.140625C12.4878 0.140625 4.99177 0.156114 3.12933 0.667814C2.6206 0.806524 2.15681 1.07708 1.78415 1.45252C1.4115 1.82797 1.14298 2.29522 1.00533 2.80774C0.441987 6.14144 0.223455 11.2212 1.0208 14.4216C1.15846 14.9341 1.42699 15.4013 1.79964 15.7767C2.1723 16.1522 2.63608 16.4227 3.1448 16.5614C5.00724 17.0731 12.5031 17.0731 12.5031 17.0731C12.5031 17.0731 19.9989 17.0731 21.8612 16.5614C22.37 16.4227 22.8338 16.1522 23.2064 15.7767C23.5791 15.4013 23.8477 14.9341 23.9853 14.4216C24.5795 11.0831 24.7626 6.00648 23.97 2.79215Z" fill="#FF0000"/>
<path d="M10.1021 12.2352L16.3203 8.60688L10.1021 4.97852V12.2352Z" fill="white"/>
</g>
<defs>
<clipPath id="clip0_2091_3736">
<rect width="24" height="17" fill="white" transform="translate(0.5 0.140625)"/>
</clipPath>
</defs>
</svg>
